%TF.GenerationSoftware,KiCad,Pcbnew,9.0.2*%
%TF.CreationDate,2025-06-25T13:02:05-07:00*%
%TF.ProjectId,Main,4d61696e-2e6b-4696-9361-645f70636258,rev?*%
%TF.SameCoordinates,Original*%
%TF.FileFunction,Soldermask,Bot*%
%TF.FilePolarity,Negative*%
%FSLAX46Y46*%
G04 Gerber Fmt 4.6, Leading zero omitted, Abs format (unit mm)*
G04 Created by KiCad (PCBNEW 9.0.2) date 2025-06-25 13:02:05*
%MOMM*%
%LPD*%
G01*
G04 APERTURE LIST*
G04 Aperture macros list*
%AMRoundRect*
0 Rectangle with rounded corners*
0 $1 Rounding radius*
0 $2 $3 $4 $5 $6 $7 $8 $9 X,Y pos of 4 corners*
0 Add a 4 corners polygon primitive as box body*
4,1,4,$2,$3,$4,$5,$6,$7,$8,$9,$2,$3,0*
0 Add four circle primitives for the rounded corners*
1,1,$1+$1,$2,$3*
1,1,$1+$1,$4,$5*
1,1,$1+$1,$6,$7*
1,1,$1+$1,$8,$9*
0 Add four rect primitives between the rounded corners*
20,1,$1+$1,$2,$3,$4,$5,0*
20,1,$1+$1,$4,$5,$6,$7,0*
20,1,$1+$1,$6,$7,$8,$9,0*
20,1,$1+$1,$8,$9,$2,$3,0*%
%AMFreePoly0*
4,1,18,-0.900000,0.625000,0.275000,0.625000,0.372772,0.617305,0.523217,0.573597,0.658067,0.493847,0.768847,0.383067,0.848597,0.248217,0.892305,0.097772,0.900000,0.000000,0.892305,-0.097772,0.848597,-0.248217,0.768847,-0.383067,0.658067,-0.493847,0.523217,-0.573597,0.372772,-0.617305,0.275000,-0.625000,-0.900000,-0.625000,-0.900000,0.625000,-0.900000,0.625000,$1*%
G04 Aperture macros list end*
%ADD10C,1.700000*%
%ADD11R,1.700000X1.700000*%
%ADD12RoundRect,0.250000X-0.312500X-0.625000X0.312500X-0.625000X0.312500X0.625000X-0.312500X0.625000X0*%
%ADD13FreePoly0,90.000000*%
%ADD14FreePoly0,270.000000*%
%ADD15C,2.800000*%
%ADD16RoundRect,0.250001X-1.149999X-1.149999X1.149999X-1.149999X1.149999X1.149999X-1.149999X1.149999X0*%
%ADD17C,2.100000*%
%ADD18RoundRect,0.250000X0.550000X-0.550000X0.550000X0.550000X-0.550000X0.550000X-0.550000X-0.550000X0*%
%ADD19C,1.600000*%
%ADD20R,1.350000X1.350000*%
%ADD21C,1.350000*%
%ADD22RoundRect,0.250001X1.149999X-1.149999X1.149999X1.149999X-1.149999X1.149999X-1.149999X-1.149999X0*%
%ADD23RoundRect,0.250000X-0.625000X0.312500X-0.625000X-0.312500X0.625000X-0.312500X0.625000X0.312500X0*%
%ADD24RoundRect,0.250000X0.312500X0.625000X-0.312500X0.625000X-0.312500X-0.625000X0.312500X-0.625000X0*%
%ADD25R,2.000000X2.000000*%
%ADD26C,2.000000*%
%ADD27R,3.000000X2.500000*%
%ADD28RoundRect,0.250000X0.325000X0.650000X-0.325000X0.650000X-0.325000X-0.650000X0.325000X-0.650000X0*%
%ADD29RoundRect,0.150000X0.587500X0.150000X-0.587500X0.150000X-0.587500X-0.150000X0.587500X-0.150000X0*%
%ADD30RoundRect,0.250000X0.625000X-0.312500X0.625000X0.312500X-0.625000X0.312500X-0.625000X-0.312500X0*%
%ADD31RoundRect,0.250000X-1.045000X0.785000X-1.045000X-0.785000X1.045000X-0.785000X1.045000X0.785000X0*%
%ADD32RoundRect,0.250000X0.400000X0.750000X-0.400000X0.750000X-0.400000X-0.750000X0.400000X-0.750000X0*%
%ADD33RoundRect,0.250000X0.750000X0.750000X-0.750000X0.750000X-0.750000X-0.750000X0.750000X-0.750000X0*%
%ADD34RoundRect,0.250000X-0.650000X0.325000X-0.650000X-0.325000X0.650000X-0.325000X0.650000X0.325000X0*%
%ADD35RoundRect,0.150000X0.512500X0.150000X-0.512500X0.150000X-0.512500X-0.150000X0.512500X-0.150000X0*%
%ADD36RoundRect,0.250000X0.785000X1.045000X-0.785000X1.045000X-0.785000X-1.045000X0.785000X-1.045000X0*%
%ADD37RoundRect,0.250000X-0.325000X-0.650000X0.325000X-0.650000X0.325000X0.650000X-0.325000X0.650000X0*%
G04 APERTURE END LIST*
D10*
%TO.C,U3*%
X141520000Y-72300000D03*
X141520000Y-74840000D03*
X141520000Y-77380000D03*
X141520000Y-79920000D03*
X141520000Y-82460000D03*
X141520000Y-85000000D03*
X141520000Y-87540000D03*
X141520000Y-90080000D03*
X141520000Y-92620000D03*
X141520000Y-95160000D03*
X141520000Y-97700000D03*
X141520000Y-100240000D03*
X141520000Y-102780000D03*
X141520000Y-105320000D03*
X141520000Y-107860000D03*
X141520000Y-110400000D03*
X141520000Y-112940000D03*
X141520000Y-115480000D03*
X141520000Y-118020000D03*
X141520000Y-120560000D03*
X123740000Y-120560000D03*
X123740000Y-118020000D03*
X123740000Y-115480000D03*
X123740000Y-112940000D03*
X123740000Y-110400000D03*
X123740000Y-107860000D03*
X123740000Y-105320000D03*
X123740000Y-102780000D03*
X123740000Y-100240000D03*
X123740000Y-97700000D03*
X123740000Y-95160000D03*
X123740000Y-92620000D03*
X123740000Y-90080000D03*
X123740000Y-87540000D03*
X123740000Y-85000000D03*
X123740000Y-82460000D03*
X123740000Y-79920000D03*
X123740000Y-77380000D03*
X123740000Y-74840000D03*
D11*
X123740000Y-72300000D03*
%TD*%
D12*
%TO.C,R4*%
X130462500Y-102500000D03*
X127537500Y-102500000D03*
%TD*%
D13*
%TO.C,U5*%
X136500000Y-98900000D03*
X134500000Y-98900000D03*
X132500000Y-98900000D03*
X130500000Y-98900000D03*
X128500000Y-98900000D03*
D14*
X128500000Y-88100000D03*
X130500000Y-88100000D03*
X132500000Y-88100000D03*
X134500000Y-88100000D03*
X136500000Y-88100000D03*
%TD*%
D15*
%TO.C,BT1*%
X157000000Y-72717500D03*
D16*
X152000000Y-72717500D03*
%TD*%
D17*
%TO.C,REF\u002A\u002A*%
X120000000Y-124500000D03*
%TD*%
D18*
%TO.C,U1*%
X146690000Y-104060000D03*
D19*
X149230000Y-104060000D03*
X151770000Y-104060000D03*
X154310000Y-104060000D03*
X154310000Y-96440000D03*
X151770000Y-96440000D03*
X149230000Y-96440000D03*
X146690000Y-96440000D03*
%TD*%
D17*
%TO.C,REF\u002A\u002A*%
X120000000Y-69500000D03*
%TD*%
D20*
%TO.C,DISP1*%
X138750000Y-124500000D03*
D21*
X136750000Y-124500000D03*
X134750000Y-124500000D03*
X132750000Y-124500000D03*
X130750000Y-124500000D03*
X128750000Y-124500000D03*
X126750000Y-124500000D03*
%TD*%
D17*
%TO.C,REF\u002A\u002A*%
X165000000Y-69500000D03*
%TD*%
D20*
%TO.C,AE1*%
X120000000Y-77250000D03*
%TD*%
D22*
%TO.C,LS1*%
X161467500Y-102750000D03*
D15*
X161467500Y-97750000D03*
%TD*%
D23*
%TO.C,R11*%
X145000000Y-81537500D03*
X145000000Y-84462500D03*
%TD*%
D24*
%TO.C,R3*%
X130462500Y-105500000D03*
X127537500Y-105500000D03*
%TD*%
D25*
%TO.C,SW2*%
X148250000Y-117250000D03*
D26*
X148250000Y-112250000D03*
X148250000Y-114750000D03*
D27*
X155750000Y-109150000D03*
X155750000Y-120350000D03*
D26*
X162750000Y-117250000D03*
X162750000Y-112250000D03*
%TD*%
D28*
%TO.C,C10*%
X143225000Y-69500000D03*
X140275000Y-69500000D03*
%TD*%
D29*
%TO.C,Q1*%
X146687500Y-74800000D03*
X146687500Y-76700000D03*
X144812500Y-75750000D03*
%TD*%
D30*
%TO.C,R12*%
X145000000Y-89462500D03*
X145000000Y-86537500D03*
%TD*%
D12*
%TO.C,R15*%
X134287500Y-115250000D03*
X137212500Y-115250000D03*
%TD*%
D23*
%TO.C,R7*%
X145000000Y-110787500D03*
X145000000Y-113712500D03*
%TD*%
D31*
%TO.C,C1*%
X157500000Y-97130000D03*
X157500000Y-103370000D03*
%TD*%
D32*
%TO.C,RV2*%
X134600000Y-105500000D03*
D33*
X135750000Y-109500000D03*
D32*
X136900000Y-105500000D03*
%TD*%
D25*
%TO.C,SW1*%
X148250000Y-88000000D03*
D26*
X148250000Y-83000000D03*
X148250000Y-85500000D03*
D27*
X155750000Y-79900000D03*
X155750000Y-91100000D03*
D26*
X162750000Y-88000000D03*
X162750000Y-83000000D03*
%TD*%
D12*
%TO.C,R16*%
X134287500Y-102500000D03*
X137212500Y-102500000D03*
%TD*%
D30*
%TO.C,R17*%
X137250000Y-82462500D03*
X137250000Y-79537500D03*
%TD*%
D34*
%TO.C,C3*%
X146500000Y-98775000D03*
X146500000Y-101725000D03*
%TD*%
D35*
%TO.C,U4*%
X146887500Y-70800000D03*
X146887500Y-72700000D03*
X144612500Y-71750000D03*
%TD*%
D36*
%TO.C,C13*%
X135620000Y-72750000D03*
X129380000Y-72750000D03*
%TD*%
D34*
%TO.C,C4*%
X133750000Y-79525000D03*
X133750000Y-82475000D03*
%TD*%
D28*
%TO.C,C9*%
X155975000Y-76250000D03*
X153025000Y-76250000D03*
%TD*%
D24*
%TO.C,R2*%
X136962500Y-85000000D03*
X134037500Y-85000000D03*
%TD*%
%TO.C,R13*%
X130462500Y-108500000D03*
X127537500Y-108500000D03*
%TD*%
D23*
%TO.C,R1*%
X150000000Y-98787500D03*
X150000000Y-101712500D03*
%TD*%
D30*
%TO.C,R8*%
X145000000Y-118712500D03*
X145000000Y-115787500D03*
%TD*%
D37*
%TO.C,C11*%
X127525000Y-111500000D03*
X130475000Y-111500000D03*
%TD*%
D12*
%TO.C,R14*%
X127537500Y-114500000D03*
X130462500Y-114500000D03*
%TD*%
D34*
%TO.C,C2*%
X153350000Y-98875000D03*
X153350000Y-101825000D03*
%TD*%
D28*
%TO.C,C12*%
X137225000Y-112500000D03*
X134275000Y-112500000D03*
%TD*%
D32*
%TO.C,RV1*%
X128100000Y-80000000D03*
D33*
X129250000Y-84000000D03*
D32*
X130400000Y-80000000D03*
%TD*%
D17*
%TO.C,REF\u002A\u002A*%
X165000000Y-124500000D03*
%TD*%
M02*
