%TF.GenerationSoftware,KiCad,Pcbnew,9.0.2*%
%TF.CreationDate,2025-06-25T13:02:05-07:00*%
%TF.ProjectId,Main,4d61696e-2e6b-4696-9361-645f70636258,rev?*%
%TF.SameCoordinates,Original*%
%TF.FileFunction,Soldermask,Top*%
%TF.FilePolarity,Negative*%
%FSLAX46Y46*%
G04 Gerber Fmt 4.6, Leading zero omitted, Abs format (unit mm)*
G04 Created by KiCad (PCBNEW 9.0.2) date 2025-06-25 13:02:05*
%MOMM*%
%LPD*%
G01*
G04 APERTURE LIST*
G04 Aperture macros list*
%AMRoundRect*
0 Rectangle with rounded corners*
0 $1 Rounding radius*
0 $2 $3 $4 $5 $6 $7 $8 $9 X,Y pos of 4 corners*
0 Add a 4 corners polygon primitive as box body*
4,1,4,$2,$3,$4,$5,$6,$7,$8,$9,$2,$3,0*
0 Add four circle primitives for the rounded corners*
1,1,$1+$1,$2,$3*
1,1,$1+$1,$4,$5*
1,1,$1+$1,$6,$7*
1,1,$1+$1,$8,$9*
0 Add four rect primitives between the rounded corners*
20,1,$1+$1,$2,$3,$4,$5,0*
20,1,$1+$1,$4,$5,$6,$7,0*
20,1,$1+$1,$6,$7,$8,$9,0*
20,1,$1+$1,$8,$9,$2,$3,0*%
G04 Aperture macros list end*
%ADD10C,1.700000*%
%ADD11R,1.700000X1.700000*%
%ADD12RoundRect,0.250000X-0.625000X0.312500X-0.625000X-0.312500X0.625000X-0.312500X0.625000X0.312500X0*%
%ADD13RoundRect,0.250000X0.325000X0.650000X-0.325000X0.650000X-0.325000X-0.650000X0.325000X-0.650000X0*%
%ADD14C,2.800000*%
%ADD15RoundRect,0.250001X-1.149999X-1.149999X1.149999X-1.149999X1.149999X1.149999X-1.149999X1.149999X0*%
%ADD16C,2.100000*%
%ADD17RoundRect,0.250000X0.312500X0.625000X-0.312500X0.625000X-0.312500X-0.625000X0.312500X-0.625000X0*%
%ADD18RoundRect,0.250000X-0.312500X-0.625000X0.312500X-0.625000X0.312500X0.625000X-0.312500X0.625000X0*%
%ADD19RoundRect,0.250000X0.550000X-0.550000X0.550000X0.550000X-0.550000X0.550000X-0.550000X-0.550000X0*%
%ADD20C,1.600000*%
%ADD21R,1.350000X1.350000*%
%ADD22C,1.350000*%
%ADD23RoundRect,0.250001X1.149999X-1.149999X1.149999X1.149999X-1.149999X1.149999X-1.149999X-1.149999X0*%
%ADD24R,2.000000X2.000000*%
%ADD25C,2.000000*%
%ADD26R,3.000000X2.500000*%
G04 APERTURE END LIST*
D10*
%TO.C,U3*%
X141520000Y-72300000D03*
X141520000Y-74840000D03*
X141520000Y-77380000D03*
X141520000Y-79920000D03*
X141520000Y-82460000D03*
X141520000Y-85000000D03*
X141520000Y-87540000D03*
X141520000Y-90080000D03*
X141520000Y-92620000D03*
X141520000Y-95160000D03*
X141520000Y-97700000D03*
X141520000Y-100240000D03*
X141520000Y-102780000D03*
X141520000Y-105320000D03*
X141520000Y-107860000D03*
X141520000Y-110400000D03*
X141520000Y-112940000D03*
X141520000Y-115480000D03*
X141520000Y-118020000D03*
X141520000Y-120560000D03*
X123740000Y-120560000D03*
X123740000Y-118020000D03*
X123740000Y-115480000D03*
X123740000Y-112940000D03*
X123740000Y-110400000D03*
X123740000Y-107860000D03*
X123740000Y-105320000D03*
X123740000Y-102780000D03*
X123740000Y-100240000D03*
X123740000Y-97700000D03*
X123740000Y-95160000D03*
X123740000Y-92620000D03*
X123740000Y-90080000D03*
X123740000Y-87540000D03*
X123740000Y-85000000D03*
X123740000Y-82460000D03*
X123740000Y-79920000D03*
X123740000Y-77380000D03*
X123740000Y-74840000D03*
D11*
X123740000Y-72300000D03*
%TD*%
D12*
%TO.C,R18*%
X120000000Y-79575000D03*
X120000000Y-82500000D03*
%TD*%
D13*
%TO.C,C7*%
X154225000Y-83000000D03*
X151275000Y-83000000D03*
%TD*%
D14*
%TO.C,BT1*%
X157000000Y-72717500D03*
D15*
X152000000Y-72717500D03*
%TD*%
D16*
%TO.C,REF\u002A\u002A*%
X120000000Y-124500000D03*
%TD*%
D17*
%TO.C,R10*%
X151212500Y-91000000D03*
X148287500Y-91000000D03*
%TD*%
D18*
%TO.C,R5*%
X148287500Y-109250000D03*
X151212500Y-109250000D03*
%TD*%
D19*
%TO.C,U1*%
X146690000Y-104060000D03*
D20*
X149230000Y-104060000D03*
X151770000Y-104060000D03*
X154310000Y-104060000D03*
X154310000Y-96440000D03*
X151770000Y-96440000D03*
X149230000Y-96440000D03*
X146690000Y-96440000D03*
%TD*%
D16*
%TO.C,REF\u002A\u002A*%
X120000000Y-69500000D03*
%TD*%
D18*
%TO.C,R9*%
X148287500Y-80000000D03*
X151212500Y-80000000D03*
%TD*%
D21*
%TO.C,DISP1*%
X138750000Y-124500000D03*
D22*
X136750000Y-124500000D03*
X134750000Y-124500000D03*
X132750000Y-124500000D03*
X130750000Y-124500000D03*
X128750000Y-124500000D03*
X126750000Y-124500000D03*
%TD*%
D17*
%TO.C,R6*%
X151212500Y-120250000D03*
X148287500Y-120250000D03*
%TD*%
D16*
%TO.C,REF\u002A\u002A*%
X165000000Y-69500000D03*
%TD*%
D21*
%TO.C,AE1*%
X120000000Y-77250000D03*
%TD*%
D13*
%TO.C,C5*%
X154225000Y-112250000D03*
X151275000Y-112250000D03*
%TD*%
D23*
%TO.C,LS1*%
X161467500Y-102750000D03*
D14*
X161467500Y-97750000D03*
%TD*%
D13*
%TO.C,C6*%
X154225000Y-117250000D03*
X151275000Y-117250000D03*
%TD*%
%TO.C,C8*%
X154225000Y-88000000D03*
X151275000Y-88000000D03*
%TD*%
D24*
%TO.C,SW2*%
X148250000Y-117250000D03*
D25*
X148250000Y-112250000D03*
X148250000Y-114750000D03*
D26*
X155750000Y-109150000D03*
X155750000Y-120350000D03*
D25*
X162750000Y-117250000D03*
X162750000Y-112250000D03*
%TD*%
D24*
%TO.C,SW1*%
X148250000Y-88000000D03*
D25*
X148250000Y-83000000D03*
X148250000Y-85500000D03*
D26*
X155750000Y-79900000D03*
X155750000Y-91100000D03*
D25*
X162750000Y-88000000D03*
X162750000Y-83000000D03*
%TD*%
D16*
%TO.C,REF\u002A\u002A*%
X165000000Y-124500000D03*
%TD*%
M02*
