M48
; DRILL file {KiCad 9.0.2} date 2025-06-25T13:02:03-0700
; FORMAT={-:-/ absolute / metric / decimal}
; #@! TF.CreationDate,2025-06-25T13:02:03-07:00
; #@! TF.GenerationSoftware,Kicad,Pcbnew,9.0.2
; #@! TF.FileFunction,Plated,1,2,PTH
FMAT,2
METRIC
; #@! TA.AperFunction,Plated,PTH,ViaDrill
T1C0.300
; #@! TA.AperFunction,Plated,PTH,ComponentDrill
T2C0.800
; #@! TA.AperFunction,Plated,PTH,ComponentDrill
T3C1.000
; #@! TA.AperFunction,Plated,PTH,ComponentDrill
T4C1.300
; #@! TA.AperFunction,Plated,PTH,ComponentDrill
T5C2.000
%
G90
G05
T1
X126.95Y-80.0
X127.4Y-72.375
X127.4Y-73.125
X128.0Y-72.0
X128.0Y-72.75
X128.0Y-73.5
X128.5Y-89.5
X128.5Y-97.625
X128.5Y-102.5
X128.5Y-105.5
X132.95Y-85.025
X137.9Y-105.45
X139.2Y-69.525
X144.975Y-112.775
X146.5Y-100.8
X147.8Y-74.8
X148.05Y-72.7
X150.0Y-100.8
X151.213Y-121.7
X151.925Y-76.275
T2
X120.0Y-77.25
X126.75Y-124.5
X128.75Y-124.5
X130.75Y-124.5
X132.75Y-124.5
X134.75Y-124.5
X136.75Y-124.5
X138.75Y-124.5
X146.69Y-96.44
X146.69Y-104.06
X149.23Y-96.44
X149.23Y-104.06
X151.77Y-96.44
X151.77Y-104.06
X154.31Y-96.44
X154.31Y-104.06
T3
X123.74Y-72.3
X123.74Y-74.84
X123.74Y-77.38
X123.74Y-79.92
X123.74Y-82.46
X123.74Y-85.0
X123.74Y-87.54
X123.74Y-90.08
X123.74Y-92.62
X123.74Y-95.16
X123.74Y-97.7
X123.74Y-100.24
X123.74Y-102.78
X123.74Y-105.32
X123.74Y-107.86
X123.74Y-110.4
X123.74Y-112.94
X123.74Y-115.48
X123.74Y-118.02
X123.74Y-120.56
X141.52Y-72.3
X141.52Y-74.84
X141.52Y-77.38
X141.52Y-79.92
X141.52Y-82.46
X141.52Y-85.0
X141.52Y-87.54
X141.52Y-90.08
X141.52Y-92.62
X141.52Y-95.16
X141.52Y-97.7
X141.52Y-100.24
X141.52Y-102.78
X141.52Y-105.32
X141.52Y-107.86
X141.52Y-110.4
X141.52Y-112.94
X141.52Y-115.48
X141.52Y-118.02
X141.52Y-120.56
X148.25Y-83.0
X148.25Y-85.5
X148.25Y-88.0
X148.25Y-112.25
X148.25Y-114.75
X148.25Y-117.25
X162.75Y-83.0
X162.75Y-88.0
X162.75Y-112.25
X162.75Y-117.25
T4
X152.0Y-72.718
X157.0Y-72.718
X161.468Y-97.75
X161.468Y-102.75
T5
G00X155.5Y-79.9
M15
G01X156.0Y-79.9
M16
G05
G00X155.5Y-91.1
M15
G01X156.0Y-91.1
M16
G05
G00X155.5Y-109.15
M15
G01X156.0Y-109.15
M16
G05
G00X155.5Y-120.35
M15
G01X156.0Y-120.35
M16
G05
M30
