%TF.GenerationSoftware,KiCad,Pcbnew,9.0.2*%
%TF.CreationDate,2025-06-25T13:02:05-07:00*%
%TF.ProjectId,Main,4d61696e-2e6b-4696-9361-645f70636258,rev?*%
%TF.SameCoordinates,Original*%
%TF.FileFunction,Copper,L1,Top*%
%TF.FilePolarity,Positive*%
%FSLAX46Y46*%
G04 Gerber Fmt 4.6, Leading zero omitted, Abs format (unit mm)*
G04 Created by KiCad (PCBNEW 9.0.2) date 2025-06-25 13:02:05*
%MOMM*%
%LPD*%
G01*
G04 APERTURE LIST*
G04 Aperture macros list*
%AMRoundRect*
0 Rectangle with rounded corners*
0 $1 Rounding radius*
0 $2 $3 $4 $5 $6 $7 $8 $9 X,Y pos of 4 corners*
0 Add a 4 corners polygon primitive as box body*
4,1,4,$2,$3,$4,$5,$6,$7,$8,$9,$2,$3,0*
0 Add four circle primitives for the rounded corners*
1,1,$1+$1,$2,$3*
1,1,$1+$1,$4,$5*
1,1,$1+$1,$6,$7*
1,1,$1+$1,$8,$9*
0 Add four rect primitives between the rounded corners*
20,1,$1+$1,$2,$3,$4,$5,0*
20,1,$1+$1,$4,$5,$6,$7,0*
20,1,$1+$1,$6,$7,$8,$9,0*
20,1,$1+$1,$8,$9,$2,$3,0*%
G04 Aperture macros list end*
%TA.AperFunction,ComponentPad*%
%ADD10C,1.700000*%
%TD*%
%TA.AperFunction,ComponentPad*%
%ADD11R,1.700000X1.700000*%
%TD*%
%TA.AperFunction,SMDPad,CuDef*%
%ADD12RoundRect,0.250000X-0.625000X0.312500X-0.625000X-0.312500X0.625000X-0.312500X0.625000X0.312500X0*%
%TD*%
%TA.AperFunction,SMDPad,CuDef*%
%ADD13RoundRect,0.250000X0.325000X0.650000X-0.325000X0.650000X-0.325000X-0.650000X0.325000X-0.650000X0*%
%TD*%
%TA.AperFunction,ComponentPad*%
%ADD14C,2.800000*%
%TD*%
%TA.AperFunction,ComponentPad*%
%ADD15RoundRect,0.250001X-1.149999X-1.149999X1.149999X-1.149999X1.149999X1.149999X-1.149999X1.149999X0*%
%TD*%
%TA.AperFunction,SMDPad,CuDef*%
%ADD16RoundRect,0.250000X0.312500X0.625000X-0.312500X0.625000X-0.312500X-0.625000X0.312500X-0.625000X0*%
%TD*%
%TA.AperFunction,SMDPad,CuDef*%
%ADD17RoundRect,0.250000X-0.312500X-0.625000X0.312500X-0.625000X0.312500X0.625000X-0.312500X0.625000X0*%
%TD*%
%TA.AperFunction,ComponentPad*%
%ADD18RoundRect,0.250000X0.550000X-0.550000X0.550000X0.550000X-0.550000X0.550000X-0.550000X-0.550000X0*%
%TD*%
%TA.AperFunction,ComponentPad*%
%ADD19C,1.600000*%
%TD*%
%TA.AperFunction,ComponentPad*%
%ADD20R,1.350000X1.350000*%
%TD*%
%TA.AperFunction,ComponentPad*%
%ADD21C,1.350000*%
%TD*%
%TA.AperFunction,ComponentPad*%
%ADD22RoundRect,0.250001X1.149999X-1.149999X1.149999X1.149999X-1.149999X1.149999X-1.149999X-1.149999X0*%
%TD*%
%TA.AperFunction,ComponentPad*%
%ADD23R,2.000000X2.000000*%
%TD*%
%TA.AperFunction,ComponentPad*%
%ADD24C,2.000000*%
%TD*%
%TA.AperFunction,ComponentPad*%
%ADD25R,3.000000X2.500000*%
%TD*%
%TA.AperFunction,ViaPad*%
%ADD26C,0.600000*%
%TD*%
%TA.AperFunction,Conductor*%
%ADD27C,0.200000*%
%TD*%
%TA.AperFunction,Conductor*%
%ADD28C,0.350000*%
%TD*%
G04 APERTURE END LIST*
D10*
%TO.P,U3,40,VBUS*%
%TO.N,/Power/VBUS*%
X141520000Y-72300000D03*
%TO.P,U3,39,VSYS*%
%TO.N,+5V*%
X141520000Y-74840000D03*
%TO.P,U3,38,GND*%
%TO.N,GND*%
X141520000Y-77380000D03*
%TO.P,U3,37,3V3_EN*%
%TO.N,unconnected-(U3-3V3_EN-Pad37)*%
X141520000Y-79920000D03*
%TO.P,U3,36,3V3*%
%TO.N,+3.3V*%
X141520000Y-82460000D03*
%TO.P,U3,35,ADC_VREF*%
%TO.N,unconnected-(U3-ADC_VREF-Pad35)*%
X141520000Y-85000000D03*
%TO.P,U3,34,GP28/ADC2*%
%TO.N,/ENC2_BTN*%
X141520000Y-87540000D03*
%TO.P,U3,33,GND*%
%TO.N,GND*%
X141520000Y-90080000D03*
%TO.P,U3,32,GP27/ADC1*%
%TO.N,/ENC2A*%
X141520000Y-92620000D03*
%TO.P,U3,31,GP26/ADC0*%
%TO.N,/ENC2B*%
X141520000Y-95160000D03*
%TO.P,U3,30,RUN*%
%TO.N,unconnected-(U3-RUN-Pad30)*%
X141520000Y-97700000D03*
%TO.P,U3,29,GP22*%
%TO.N,unconnected-(U3-GP22-Pad29)*%
X141520000Y-100240000D03*
%TO.P,U3,28,GND*%
%TO.N,GND*%
X141520000Y-102780000D03*
%TO.P,U3,27,GP21*%
%TO.N,unconnected-(U3-GP21-Pad27)*%
X141520000Y-105320000D03*
%TO.P,U3,26,GP20*%
%TO.N,unconnected-(U3-GP20-Pad26)*%
X141520000Y-107860000D03*
%TO.P,U3,25,GP19*%
%TO.N,unconnected-(U3-GP19-Pad25)*%
X141520000Y-110400000D03*
%TO.P,U3,24,GP18*%
%TO.N,/ENC1A*%
X141520000Y-112940000D03*
%TO.P,U3,23,GND*%
%TO.N,GND*%
X141520000Y-115480000D03*
%TO.P,U3,22,GP17*%
%TO.N,/ENC1B*%
X141520000Y-118020000D03*
%TO.P,U3,21,GP16*%
%TO.N,/ENC1_BTN*%
X141520000Y-120560000D03*
%TO.P,U3,20,GP15*%
%TO.N,/DISP_SDA*%
X123740000Y-120560000D03*
%TO.P,U3,19,GP14*%
%TO.N,/DISP_SCLK*%
X123740000Y-118020000D03*
%TO.P,U3,18,GND*%
%TO.N,GND*%
X123740000Y-115480000D03*
%TO.P,U3,17,GP13*%
%TO.N,/DISP_CS*%
X123740000Y-112940000D03*
%TO.P,U3,16,GP12*%
%TO.N,/DISP_DC*%
X123740000Y-110400000D03*
%TO.P,U3,15,GP11*%
%TO.N,/DISP_RES*%
X123740000Y-107860000D03*
%TO.P,U3,14,GP10*%
%TO.N,/Radio-Audio/PWM Audio*%
X123740000Y-105320000D03*
%TO.P,U3,13,GND*%
%TO.N,GND*%
X123740000Y-102780000D03*
%TO.P,U3,12,GP9*%
%TO.N,/Radio-Audio/Radio_SCL*%
X123740000Y-100240000D03*
%TO.P,U3,11,GP8*%
%TO.N,/Radio-Audio/Radio_SDA*%
X123740000Y-97700000D03*
%TO.P,U3,10,GP7*%
%TO.N,unconnected-(U3-GP7-Pad10)*%
X123740000Y-95160000D03*
%TO.P,U3,9,GP6*%
%TO.N,unconnected-(U3-GP6-Pad9)*%
X123740000Y-92620000D03*
%TO.P,U3,8,GND*%
%TO.N,GND*%
X123740000Y-90080000D03*
%TO.P,U3,7,GP5*%
%TO.N,unconnected-(U3-GP5-Pad7)*%
X123740000Y-87540000D03*
%TO.P,U3,6,GP4*%
%TO.N,unconnected-(U3-GP4-Pad6)*%
X123740000Y-85000000D03*
%TO.P,U3,5,GP3*%
%TO.N,unconnected-(U3-GP3-Pad5)*%
X123740000Y-82460000D03*
%TO.P,U3,4,GP2*%
%TO.N,unconnected-(U3-GP2-Pad4)*%
X123740000Y-79920000D03*
%TO.P,U3,3,GND*%
%TO.N,GND*%
X123740000Y-77380000D03*
%TO.P,U3,2,GP1*%
%TO.N,unconnected-(U3-GP1-Pad2)*%
X123740000Y-74840000D03*
D11*
%TO.P,U3,1,GP0*%
%TO.N,unconnected-(U3-GP0-Pad1)*%
X123740000Y-72300000D03*
%TD*%
D12*
%TO.P,R18,1*%
%TO.N,Net-(AE1-A)*%
X120000000Y-79575000D03*
%TO.P,R18,2*%
%TO.N,/Radio-Audio/Board Antenna*%
X120000000Y-82500000D03*
%TD*%
D13*
%TO.P,C7,1*%
%TO.N,/ENC2B*%
X154225000Y-83000000D03*
%TO.P,C7,2*%
%TO.N,GND*%
X151275000Y-83000000D03*
%TD*%
D14*
%TO.P,BT1,1,+*%
%TO.N,Net-(BT1-+)*%
X157000000Y-72717500D03*
D15*
%TO.P,BT1,2,-*%
%TO.N,GND*%
X152000000Y-72717500D03*
%TD*%
D16*
%TO.P,R10,1*%
%TO.N,/ENC2A*%
X151212500Y-91000000D03*
%TO.P,R10,2*%
%TO.N,Net-(R10-Pad2)*%
X148287500Y-91000000D03*
%TD*%
D17*
%TO.P,R5,1*%
%TO.N,Net-(R5-Pad1)*%
X148287500Y-109250000D03*
%TO.P,R5,2*%
%TO.N,/ENC1B*%
X151212500Y-109250000D03*
%TD*%
D18*
%TO.P,U1,1,GAIN*%
%TO.N,unconnected-(U1-GAIN-Pad1)*%
X146690000Y-104060000D03*
D19*
%TO.P,U1,2,-*%
%TO.N,GND*%
X149230000Y-104060000D03*
%TO.P,U1,3,+*%
%TO.N,Net-(U1-+)*%
X151770000Y-104060000D03*
%TO.P,U1,4,GND*%
%TO.N,GND*%
X154310000Y-104060000D03*
%TO.P,U1,5*%
%TO.N,Net-(C1-Pad1)*%
X154310000Y-96440000D03*
%TO.P,U1,6,V+*%
%TO.N,+5V*%
X151770000Y-96440000D03*
%TO.P,U1,7,BYPASS*%
%TO.N,unconnected-(U1-BYPASS-Pad7)*%
X149230000Y-96440000D03*
%TO.P,U1,8,GAIN*%
%TO.N,unconnected-(U1-GAIN-Pad8)*%
X146690000Y-96440000D03*
%TD*%
D17*
%TO.P,R9,1*%
%TO.N,Net-(R11-Pad1)*%
X148287500Y-80000000D03*
%TO.P,R9,2*%
%TO.N,/ENC2B*%
X151212500Y-80000000D03*
%TD*%
D20*
%TO.P,DISP1,1,VSS/GND*%
%TO.N,GND*%
X138750000Y-124500000D03*
D21*
%TO.P,DISP1,2,VDD*%
%TO.N,+3.3V*%
X136750000Y-124500000D03*
%TO.P,DISP1,3,SCLK*%
%TO.N,/DISP_SCLK*%
X134750000Y-124500000D03*
%TO.P,DISP1,4,SDA*%
%TO.N,/DISP_SDA*%
X132750000Y-124500000D03*
%TO.P,DISP1,5,RES*%
%TO.N,/DISP_RES*%
X130750000Y-124500000D03*
%TO.P,DISP1,6,DC*%
%TO.N,/DISP_DC*%
X128750000Y-124500000D03*
%TO.P,DISP1,7,CS*%
%TO.N,/DISP_CS*%
X126750000Y-124500000D03*
%TD*%
D16*
%TO.P,R6,1*%
%TO.N,/ENC1A*%
X151212500Y-120250000D03*
%TO.P,R6,2*%
%TO.N,Net-(R6-Pad2)*%
X148287500Y-120250000D03*
%TD*%
D20*
%TO.P,AE1,1,A*%
%TO.N,Net-(AE1-A)*%
X120000000Y-77250000D03*
%TD*%
D13*
%TO.P,C5,1*%
%TO.N,/ENC1B*%
X154225000Y-112250000D03*
%TO.P,C5,2*%
%TO.N,GND*%
X151275000Y-112250000D03*
%TD*%
D22*
%TO.P,LS1,1,1*%
%TO.N,Net-(C1-Pad2)*%
X161467500Y-102750000D03*
D14*
%TO.P,LS1,2,2*%
%TO.N,GND*%
X161467500Y-97750000D03*
%TD*%
D13*
%TO.P,C6,1*%
%TO.N,/ENC1A*%
X154225000Y-117250000D03*
%TO.P,C6,2*%
%TO.N,GND*%
X151275000Y-117250000D03*
%TD*%
%TO.P,C8,1*%
%TO.N,/ENC2A*%
X154225000Y-88000000D03*
%TO.P,C8,2*%
%TO.N,GND*%
X151275000Y-88000000D03*
%TD*%
D23*
%TO.P,SW2,A,A*%
%TO.N,Net-(R6-Pad2)*%
X148250000Y-117250000D03*
D24*
%TO.P,SW2,B,B*%
%TO.N,Net-(R5-Pad1)*%
X148250000Y-112250000D03*
%TO.P,SW2,C,C*%
%TO.N,GND*%
X148250000Y-114750000D03*
D25*
%TO.P,SW2,MP*%
X155750000Y-109150000D03*
X155750000Y-120350000D03*
D24*
%TO.P,SW2,S1,S1*%
X162750000Y-117250000D03*
%TO.P,SW2,S2,S2*%
%TO.N,/ENC1_BTN*%
X162750000Y-112250000D03*
%TD*%
D23*
%TO.P,SW1,A,A*%
%TO.N,Net-(R10-Pad2)*%
X148250000Y-88000000D03*
D24*
%TO.P,SW1,B,B*%
%TO.N,Net-(R11-Pad1)*%
X148250000Y-83000000D03*
%TO.P,SW1,C,C*%
%TO.N,GND*%
X148250000Y-85500000D03*
D25*
%TO.P,SW1,MP*%
X155750000Y-79900000D03*
X155750000Y-91100000D03*
D24*
%TO.P,SW1,S1,S1*%
X162750000Y-88000000D03*
%TO.P,SW1,S2,S2*%
%TO.N,/ENC2_BTN*%
X162750000Y-83000000D03*
%TD*%
D26*
%TO.N,/Power/VBUS*%
X147800000Y-74800000D03*
%TO.N,GND*%
X146500000Y-100800000D03*
X137900000Y-105450000D03*
X128000000Y-72000000D03*
X128000000Y-73500000D03*
X150000000Y-100800000D03*
X127400000Y-73125000D03*
X126950000Y-80000000D03*
X139200000Y-69525000D03*
X128000000Y-72750000D03*
X132950000Y-85025000D03*
X148050000Y-72700000D03*
X128500000Y-89500000D03*
X127400000Y-72375000D03*
X151925000Y-76275000D03*
%TO.N,/ENC1A*%
X151212500Y-121700000D03*
%TO.N,+3.3V*%
X128500000Y-105500000D03*
X128500000Y-102500000D03*
X144975000Y-112775000D03*
X128500000Y-97625000D03*
%TD*%
D27*
%TO.N,/ENC1A*%
X151212500Y-121700000D02*
X151212500Y-120250000D01*
%TO.N,/Power/VBUS*%
X144020000Y-74800000D02*
X147800000Y-74800000D01*
X141520000Y-72300000D02*
X144020000Y-74800000D01*
%TO.N,Net-(AE1-A)*%
X120000000Y-77250000D02*
X120000000Y-79575000D01*
%TO.N,/ENC1B*%
X146150000Y-109663840D02*
X147739840Y-108074000D01*
X154212500Y-112250000D02*
X154225000Y-112250000D01*
X144930000Y-118020000D02*
X146150000Y-116800000D01*
X141520000Y-118020000D02*
X144930000Y-118020000D01*
X150036500Y-108074000D02*
X151212500Y-109250000D01*
X151212500Y-109250000D02*
X154212500Y-112250000D01*
X147739840Y-108074000D02*
X150036500Y-108074000D01*
X146150000Y-116800000D02*
X146150000Y-109663840D01*
%TO.N,/ENC1A*%
X154225000Y-117250000D02*
X151225000Y-120250000D01*
X151225000Y-120250000D02*
X151212500Y-120250000D01*
%TO.N,/ENC2B*%
X157800000Y-92402000D02*
X155042000Y-95160000D01*
X151212500Y-80000000D02*
X154212500Y-83000000D01*
X154212500Y-83000000D02*
X154225000Y-83000000D01*
X157800000Y-86575000D02*
X157800000Y-92402000D01*
X155042000Y-95160000D02*
X141520000Y-95160000D01*
X154225000Y-83000000D02*
X157800000Y-86575000D01*
%TO.N,/ENC2A*%
X154225000Y-88000000D02*
X151225000Y-91000000D01*
X151212500Y-91000000D02*
X149592500Y-92620000D01*
X151225000Y-91000000D02*
X151212500Y-91000000D01*
X149592500Y-92620000D02*
X141520000Y-92620000D01*
%TO.N,/DISP_DC*%
X123740000Y-110400000D02*
X128750000Y-115410000D01*
X128750000Y-115410000D02*
X128750000Y-124500000D01*
%TO.N,/DISP_RES*%
X123740000Y-107860000D02*
X130750000Y-114870000D01*
X130750000Y-114870000D02*
X130750000Y-124500000D01*
D28*
%TO.N,+3.3V*%
X128500000Y-95480000D02*
X141520000Y-82460000D01*
X143914000Y-111714000D02*
X144975000Y-112775000D01*
X138886000Y-111714000D02*
X141525000Y-111714000D01*
X128500000Y-102500000D02*
X128500000Y-97625000D01*
X128500000Y-97625000D02*
X128500000Y-95480000D01*
X141525000Y-111714000D02*
X143914000Y-111714000D01*
X136800000Y-124550000D02*
X136800000Y-113800000D01*
X128500000Y-105500000D02*
X128500000Y-102500000D01*
X136800000Y-113800000D02*
X138886000Y-111714000D01*
X136800000Y-113800000D02*
X128500000Y-105500000D01*
D27*
%TO.N,/DISP_CS*%
X126750000Y-115950000D02*
X126750000Y-124500000D01*
X123740000Y-112940000D02*
X126750000Y-115950000D01*
%TO.N,Net-(R5-Pad1)*%
X148287500Y-109250000D02*
X148287500Y-112212500D01*
X148287500Y-112212500D02*
X148250000Y-112250000D01*
%TO.N,Net-(R6-Pad2)*%
X148287500Y-117287500D02*
X148250000Y-117250000D01*
X148287500Y-120250000D02*
X148287500Y-117287500D01*
%TO.N,Net-(R11-Pad1)*%
X148287500Y-80000000D02*
X148287500Y-82962500D01*
X148287500Y-82962500D02*
X148250000Y-83000000D01*
%TO.N,Net-(R10-Pad2)*%
X148287500Y-91000000D02*
X148287500Y-88037500D01*
X148287500Y-88037500D02*
X148250000Y-88000000D01*
%TD*%
%TA.AperFunction,Conductor*%
%TO.N,GND*%
G36*
X163508864Y-67750633D02*
G01*
X163766870Y-67769086D01*
X163802026Y-67774141D01*
X164046074Y-67827230D01*
X164080150Y-67837237D01*
X164307577Y-67922063D01*
X164310679Y-67923220D01*
X164393335Y-67974279D01*
X164450161Y-68053082D01*
X164472503Y-68147633D01*
X164456962Y-68243537D01*
X164405903Y-68326193D01*
X164336709Y-68378379D01*
X164318390Y-68387712D01*
X164152779Y-68508035D01*
X164008035Y-68652779D01*
X163887711Y-68818392D01*
X163794782Y-69000775D01*
X163794778Y-69000785D01*
X163731522Y-69195468D01*
X163699500Y-69397638D01*
X163699500Y-69602361D01*
X163731522Y-69804531D01*
X163794778Y-69999214D01*
X163794782Y-69999224D01*
X163887711Y-70181607D01*
X163887713Y-70181610D01*
X164008034Y-70347219D01*
X164152781Y-70491966D01*
X164318390Y-70612287D01*
X164318392Y-70612288D01*
X164391424Y-70649500D01*
X164500781Y-70705220D01*
X164695466Y-70768477D01*
X164766575Y-70779739D01*
X164897638Y-70800499D01*
X164897645Y-70800499D01*
X164897648Y-70800500D01*
X164897651Y-70800500D01*
X165102349Y-70800500D01*
X165102352Y-70800500D01*
X165102356Y-70800499D01*
X165102360Y-70800499D01*
X165212047Y-70783126D01*
X165309127Y-70786940D01*
X165397358Y-70827614D01*
X165463307Y-70898957D01*
X165496934Y-70990107D01*
X165500000Y-71029060D01*
X165500000Y-122491101D01*
X165499366Y-122508865D01*
X165480913Y-122766866D01*
X165475857Y-122802031D01*
X165429821Y-123013654D01*
X165391045Y-123102736D01*
X165321130Y-123170197D01*
X165230721Y-123205769D01*
X165147561Y-123206660D01*
X165102355Y-123199500D01*
X165102352Y-123199500D01*
X164897648Y-123199500D01*
X164897638Y-123199500D01*
X164695468Y-123231522D01*
X164500785Y-123294778D01*
X164500775Y-123294782D01*
X164318392Y-123387711D01*
X164152779Y-123508035D01*
X164008035Y-123652779D01*
X163887711Y-123818392D01*
X163794782Y-124000775D01*
X163794778Y-124000785D01*
X163731522Y-124195468D01*
X163716557Y-124289953D01*
X163682930Y-124381103D01*
X163616981Y-124452446D01*
X163528750Y-124493120D01*
X163470623Y-124500000D01*
X139258898Y-124500000D01*
X139241136Y-124499366D01*
X139190327Y-124495732D01*
X138983133Y-124480913D01*
X138947968Y-124475857D01*
X138703931Y-124422770D01*
X138669843Y-124412760D01*
X138435856Y-124325487D01*
X138403540Y-124310729D01*
X138291536Y-124249570D01*
X138216987Y-124187268D01*
X138174056Y-124107973D01*
X138117401Y-123933608D01*
X138117400Y-123933604D01*
X138011961Y-123726669D01*
X137875449Y-123538776D01*
X137875445Y-123538772D01*
X137848428Y-123511754D01*
X137794453Y-123430972D01*
X137775500Y-123335687D01*
X137775500Y-114307205D01*
X137794454Y-114211917D01*
X137848430Y-114131135D01*
X139217136Y-112762430D01*
X139297918Y-112708454D01*
X139393206Y-112689500D01*
X139620500Y-112689500D01*
X139715788Y-112708454D01*
X139796570Y-112762430D01*
X139850546Y-112843212D01*
X139869500Y-112938500D01*
X139869500Y-113069892D01*
X139869501Y-113069908D01*
X139910138Y-113326487D01*
X139910140Y-113326493D01*
X139990419Y-113573567D01*
X139990423Y-113573577D01*
X140108365Y-113805050D01*
X140159550Y-113875500D01*
X140261069Y-114015229D01*
X140444771Y-114198931D01*
X140654949Y-114351634D01*
X140886428Y-114469579D01*
X141133507Y-114549860D01*
X141133510Y-114549860D01*
X141133512Y-114549861D01*
X141307135Y-114577359D01*
X141390103Y-114590500D01*
X141390107Y-114590500D01*
X141649893Y-114590500D01*
X141649897Y-114590500D01*
X141906493Y-114549860D01*
X142153572Y-114469579D01*
X142385051Y-114351634D01*
X142595229Y-114198931D01*
X142778931Y-114015229D01*
X142931634Y-113805051D01*
X143049579Y-113573572D01*
X143129860Y-113326493D01*
X143170500Y-113069897D01*
X143170500Y-112951205D01*
X143189454Y-112855917D01*
X143243430Y-112775135D01*
X143324212Y-112721159D01*
X143419500Y-112702205D01*
X143514788Y-112721159D01*
X143595570Y-112775135D01*
X143882653Y-113062218D01*
X143936629Y-113143000D01*
X143943396Y-113161341D01*
X143955126Y-113197443D01*
X144033770Y-113351792D01*
X144135581Y-113491922D01*
X144135583Y-113491924D01*
X144135586Y-113491928D01*
X144258072Y-113614414D01*
X144258075Y-113614416D01*
X144258077Y-113614418D01*
X144398207Y-113716229D01*
X144398209Y-113716230D01*
X144398212Y-113716232D01*
X144552555Y-113794873D01*
X144717299Y-113848402D01*
X144888389Y-113875500D01*
X144888393Y-113875500D01*
X145000500Y-113875500D01*
X145095788Y-113894454D01*
X145176570Y-113948430D01*
X145230546Y-114029212D01*
X145249500Y-114124500D01*
X145249500Y-116323860D01*
X145230546Y-116419148D01*
X145176570Y-116499930D01*
X144629930Y-117046570D01*
X144549148Y-117100546D01*
X144453860Y-117119500D01*
X143032751Y-117119500D01*
X142937463Y-117100546D01*
X142856681Y-117046570D01*
X142831306Y-117016859D01*
X142778933Y-116944774D01*
X142778931Y-116944771D01*
X142595229Y-116761069D01*
X142385051Y-116608366D01*
X142385052Y-116608366D01*
X142385050Y-116608365D01*
X142153577Y-116490423D01*
X142153567Y-116490419D01*
X141906493Y-116410140D01*
X141906487Y-116410138D01*
X141649908Y-116369501D01*
X141649899Y-116369500D01*
X141649897Y-116369500D01*
X141390103Y-116369500D01*
X141390100Y-116369500D01*
X141390091Y-116369501D01*
X141133512Y-116410138D01*
X141133506Y-116410140D01*
X140886432Y-116490419D01*
X140886422Y-116490423D01*
X140654949Y-116608365D01*
X140444774Y-116761066D01*
X140261066Y-116944774D01*
X140108365Y-117154949D01*
X139990423Y-117386422D01*
X139990419Y-117386432D01*
X139910140Y-117633506D01*
X139910138Y-117633512D01*
X139869501Y-117890091D01*
X139869500Y-117890107D01*
X139869500Y-118149892D01*
X139869501Y-118149908D01*
X139910138Y-118406487D01*
X139910140Y-118406493D01*
X139990419Y-118653567D01*
X139990423Y-118653577D01*
X140108365Y-118885050D01*
X140219764Y-119038377D01*
X140261069Y-119095229D01*
X140279773Y-119113933D01*
X140333747Y-119194712D01*
X140352701Y-119290000D01*
X140333747Y-119385288D01*
X140279773Y-119466066D01*
X140261069Y-119484771D01*
X140261066Y-119484774D01*
X140108365Y-119694949D01*
X139990423Y-119926422D01*
X139990419Y-119926432D01*
X139910140Y-120173506D01*
X139910138Y-120173512D01*
X139869501Y-120430091D01*
X139869500Y-120430107D01*
X139869500Y-120689892D01*
X139869501Y-120689908D01*
X139910138Y-120946487D01*
X139910140Y-120946493D01*
X139990419Y-121193567D01*
X139990423Y-121193577D01*
X140108365Y-121425050D01*
X140219222Y-121577632D01*
X140261069Y-121635229D01*
X140444771Y-121818931D01*
X140654949Y-121971634D01*
X140886428Y-122089579D01*
X141133507Y-122169860D01*
X141133510Y-122169860D01*
X141133512Y-122169861D01*
X141307135Y-122197359D01*
X141390103Y-122210500D01*
X141390107Y-122210500D01*
X141649893Y-122210500D01*
X141649897Y-122210500D01*
X141906493Y-122169860D01*
X142153572Y-122089579D01*
X142385051Y-121971634D01*
X142595229Y-121818931D01*
X142778931Y-121635229D01*
X142931634Y-121425051D01*
X143049579Y-121193572D01*
X143129860Y-120946493D01*
X143170500Y-120689897D01*
X143170500Y-120430103D01*
X143129860Y-120173507D01*
X143049579Y-119926428D01*
X142931634Y-119694949D01*
X142778931Y-119484771D01*
X142760226Y-119466066D01*
X142740735Y-119436894D01*
X142718151Y-119410052D01*
X142713961Y-119396824D01*
X142706253Y-119385288D01*
X142699408Y-119350877D01*
X142688815Y-119317432D01*
X142690005Y-119303608D01*
X142687299Y-119290000D01*
X142694143Y-119255592D01*
X142697155Y-119220636D01*
X142703095Y-119210586D01*
X142706253Y-119194712D01*
X142741904Y-119134400D01*
X142750503Y-119123656D01*
X142778931Y-119095229D01*
X142834715Y-119018447D01*
X142838356Y-119013900D01*
X142871155Y-118986304D01*
X142902649Y-118957192D01*
X142908185Y-118955149D01*
X142912699Y-118951352D01*
X142953571Y-118938406D01*
X142993799Y-118923566D01*
X143002616Y-118922871D01*
X143005319Y-118922016D01*
X143009220Y-118922352D01*
X143032751Y-118920500D01*
X145018689Y-118920500D01*
X145018692Y-118920500D01*
X145192666Y-118885895D01*
X145274606Y-118851953D01*
X145356547Y-118818013D01*
X145454950Y-118752262D01*
X145504036Y-118719464D01*
X146031134Y-118192365D01*
X146111915Y-118138389D01*
X146207203Y-118119435D01*
X146302491Y-118138389D01*
X146383272Y-118192365D01*
X146437249Y-118273147D01*
X146454637Y-118340555D01*
X146464630Y-118429246D01*
X146464631Y-118429251D01*
X146464632Y-118429255D01*
X146524211Y-118599522D01*
X146524212Y-118599523D01*
X146524214Y-118599529D01*
X146620180Y-118752257D01*
X146620182Y-118752259D01*
X146620184Y-118752262D01*
X146747738Y-118879816D01*
X146747740Y-118879817D01*
X146747742Y-118879819D01*
X146885363Y-118966292D01*
X146955962Y-119033037D01*
X146995644Y-119121718D01*
X146998369Y-119218835D01*
X146991165Y-119249406D01*
X146939700Y-119419064D01*
X146924500Y-119573391D01*
X146924500Y-120926608D01*
X146939699Y-121080934D01*
X146999768Y-121278955D01*
X147097316Y-121461452D01*
X147228583Y-121621403D01*
X147228596Y-121621416D01*
X147388547Y-121752683D01*
X147388548Y-121752683D01*
X147388550Y-121752685D01*
X147571046Y-121850232D01*
X147682841Y-121884144D01*
X147769065Y-121910300D01*
X147784265Y-121911796D01*
X147923392Y-121925500D01*
X147923395Y-121925500D01*
X148651605Y-121925500D01*
X148651608Y-121925500D01*
X148805934Y-121910300D01*
X149003954Y-121850232D01*
X149186450Y-121752685D01*
X149299602Y-121659824D01*
X149346403Y-121621416D01*
X149346404Y-121621414D01*
X149346410Y-121621410D01*
X149349224Y-121617982D01*
X149477683Y-121461452D01*
X149477685Y-121461450D01*
X149530403Y-121362822D01*
X149540410Y-121350628D01*
X149546846Y-121336225D01*
X149570963Y-121313398D01*
X149592034Y-121287724D01*
X149605949Y-121280285D01*
X149617408Y-121269441D01*
X149648426Y-121257581D01*
X149677717Y-121241925D01*
X149693419Y-121240378D01*
X149708156Y-121234744D01*
X149741352Y-121235657D01*
X149774404Y-121232402D01*
X149789502Y-121236982D01*
X149805274Y-121237416D01*
X149835592Y-121250962D01*
X149867376Y-121260604D01*
X149879573Y-121270614D01*
X149893977Y-121277050D01*
X149911147Y-121296525D01*
X149942478Y-121322238D01*
X149960761Y-121347612D01*
X149965455Y-121355073D01*
X150022315Y-121461450D01*
X150065419Y-121513972D01*
X150073762Y-121527234D01*
X150085623Y-121558256D01*
X150101278Y-121587544D01*
X150104103Y-121606589D01*
X150108459Y-121617982D01*
X150108041Y-121633141D01*
X150112000Y-121659825D01*
X150112000Y-121786606D01*
X150112001Y-121786621D01*
X150139097Y-121957697D01*
X150192624Y-122122437D01*
X150192626Y-122122443D01*
X150271270Y-122276792D01*
X150373081Y-122416922D01*
X150373083Y-122416924D01*
X150373086Y-122416928D01*
X150495572Y-122539414D01*
X150495575Y-122539416D01*
X150495577Y-122539418D01*
X150635707Y-122641229D01*
X150635709Y-122641230D01*
X150635712Y-122641232D01*
X150790055Y-122719873D01*
X150954799Y-122773402D01*
X151125889Y-122800500D01*
X151125893Y-122800500D01*
X151299107Y-122800500D01*
X151299111Y-122800500D01*
X151470201Y-122773402D01*
X151634945Y-122719873D01*
X151789288Y-122641232D01*
X151929428Y-122539414D01*
X152051914Y-122416928D01*
X152153732Y-122276788D01*
X152232373Y-122122445D01*
X152285902Y-121957701D01*
X152313000Y-121786611D01*
X152313000Y-121659824D01*
X152331954Y-121564536D01*
X152369520Y-121501861D01*
X152402685Y-121461450D01*
X152500232Y-121278954D01*
X152560300Y-121080934D01*
X152575500Y-120926608D01*
X152575500Y-120276138D01*
X152594454Y-120180850D01*
X152648428Y-120100070D01*
X153725068Y-119023429D01*
X153805850Y-118969454D01*
X153901138Y-118950500D01*
X154601605Y-118950500D01*
X154601608Y-118950500D01*
X154755934Y-118935300D01*
X154953954Y-118875232D01*
X155136450Y-118777685D01*
X155292317Y-118649769D01*
X155296403Y-118646416D01*
X155296404Y-118646414D01*
X155296410Y-118646410D01*
X155427685Y-118486450D01*
X155525232Y-118303954D01*
X155585300Y-118105934D01*
X155600500Y-117951608D01*
X155600500Y-116548392D01*
X155585300Y-116394066D01*
X155577848Y-116369501D01*
X155527962Y-116205046D01*
X155525232Y-116196046D01*
X155427685Y-116013550D01*
X155427683Y-116013547D01*
X155296416Y-115853596D01*
X155296403Y-115853583D01*
X155136452Y-115722316D01*
X154953955Y-115624768D01*
X154755934Y-115564699D01*
X154601608Y-115549500D01*
X153848392Y-115549500D01*
X153848391Y-115549500D01*
X153694065Y-115564699D01*
X153496044Y-115624768D01*
X153313547Y-115722316D01*
X153153596Y-115853583D01*
X153153583Y-115853596D01*
X153022316Y-116013547D01*
X152924768Y-116196044D01*
X152864699Y-116394065D01*
X152849500Y-116548391D01*
X152849500Y-117248860D01*
X152830546Y-117344148D01*
X152776570Y-117424930D01*
X151699930Y-118501570D01*
X151619148Y-118555546D01*
X151523860Y-118574500D01*
X150848391Y-118574500D01*
X150694065Y-118589699D01*
X150496043Y-118649769D01*
X150496042Y-118649769D01*
X150395697Y-118703405D01*
X150302726Y-118731607D01*
X150206038Y-118722084D01*
X150120355Y-118676285D01*
X150058721Y-118601183D01*
X150030519Y-118508212D01*
X150034627Y-118443243D01*
X150033803Y-118443151D01*
X150050499Y-118294968D01*
X150050500Y-118294953D01*
X150050500Y-116205046D01*
X150050499Y-116205031D01*
X150035369Y-116070754D01*
X150035368Y-116070745D01*
X149975789Y-115900478D01*
X149975786Y-115900473D01*
X149975785Y-115900470D01*
X149879819Y-115747742D01*
X149879817Y-115747740D01*
X149879816Y-115747738D01*
X149752262Y-115620184D01*
X149752259Y-115620182D01*
X149752257Y-115620180D01*
X149599529Y-115524214D01*
X149599524Y-115524212D01*
X149599522Y-115524211D01*
X149429255Y-115464632D01*
X149429251Y-115464631D01*
X149429245Y-115464630D01*
X149294968Y-115449500D01*
X149294954Y-115449500D01*
X147299500Y-115449500D01*
X147204212Y-115430546D01*
X147123430Y-115376570D01*
X147069454Y-115295788D01*
X147050500Y-115200500D01*
X147050500Y-114067786D01*
X147069454Y-113972498D01*
X147123430Y-113891716D01*
X147204212Y-113837740D01*
X147299500Y-113818786D01*
X147394788Y-113837740D01*
X147423994Y-113852143D01*
X147451951Y-113868284D01*
X147670007Y-113958606D01*
X147897986Y-114019693D01*
X148131989Y-114050500D01*
X148368011Y-114050500D01*
X148602014Y-114019693D01*
X148829993Y-113958606D01*
X149048049Y-113868284D01*
X149252450Y-113750273D01*
X149439699Y-113606592D01*
X149606592Y-113439699D01*
X149750273Y-113252450D01*
X149868284Y-113048049D01*
X149958606Y-112829993D01*
X150019693Y-112602014D01*
X150050500Y-112368011D01*
X150050500Y-112131989D01*
X150019693Y-111897986D01*
X149958606Y-111670007D01*
X149868284Y-111451951D01*
X149834863Y-111394065D01*
X149750278Y-111247559D01*
X149750272Y-111247549D01*
X149606592Y-111060301D01*
X149439699Y-110893408D01*
X149439698Y-110893407D01*
X149436840Y-110890901D01*
X149435678Y-110889387D01*
X149433935Y-110887644D01*
X149434164Y-110887414D01*
X149417081Y-110865154D01*
X149394112Y-110842232D01*
X149387764Y-110826952D01*
X149377691Y-110813826D01*
X149369289Y-110782479D01*
X149356840Y-110752510D01*
X149356823Y-110735964D01*
X149352540Y-110719983D01*
X149356774Y-110687808D01*
X149356741Y-110655355D01*
X149362706Y-110642724D01*
X149365216Y-110623658D01*
X149393829Y-110565558D01*
X149400682Y-110555278D01*
X149477685Y-110461450D01*
X149536105Y-110352153D01*
X149542823Y-110342078D01*
X149568750Y-110316097D01*
X149592037Y-110287723D01*
X149602816Y-110281961D01*
X149611451Y-110273309D01*
X149645351Y-110259226D01*
X149677720Y-110241925D01*
X149689883Y-110240727D01*
X149701173Y-110236037D01*
X149737880Y-110235999D01*
X149774407Y-110232402D01*
X149786104Y-110235950D01*
X149798328Y-110235938D01*
X149832251Y-110249949D01*
X149867379Y-110260605D01*
X149876828Y-110268360D01*
X149888125Y-110273026D01*
X149914105Y-110298953D01*
X149942480Y-110322240D01*
X149952566Y-110337335D01*
X149956894Y-110341654D01*
X149959263Y-110347357D01*
X149969598Y-110362824D01*
X150022316Y-110461452D01*
X150153583Y-110621403D01*
X150153596Y-110621416D01*
X150313547Y-110752683D01*
X150313548Y-110752683D01*
X150313550Y-110752685D01*
X150451735Y-110826547D01*
X150494719Y-110849523D01*
X150496046Y-110850232D01*
X150607841Y-110884144D01*
X150694065Y-110910300D01*
X150709265Y-110911796D01*
X150848392Y-110925500D01*
X150848395Y-110925500D01*
X151511360Y-110925500D01*
X151606648Y-110944454D01*
X151687430Y-110998430D01*
X152776570Y-112087569D01*
X152830546Y-112168351D01*
X152849500Y-112263639D01*
X152849500Y-112951608D01*
X152864699Y-113105934D01*
X152924768Y-113303955D01*
X153022316Y-113486452D01*
X153153583Y-113646403D01*
X153153596Y-113646416D01*
X153313547Y-113777683D01*
X153313548Y-113777683D01*
X153313550Y-113777685D01*
X153496046Y-113875232D01*
X153607841Y-113909144D01*
X153694065Y-113935300D01*
X153709265Y-113936796D01*
X153848392Y-113950500D01*
X153848395Y-113950500D01*
X154601605Y-113950500D01*
X154601608Y-113950500D01*
X154755934Y-113935300D01*
X154953954Y-113875232D01*
X155136450Y-113777685D01*
X155296410Y-113646410D01*
X155329089Y-113606591D01*
X155427683Y-113486452D01*
X155427685Y-113486450D01*
X155525232Y-113303954D01*
X155585300Y-113105934D01*
X155600500Y-112951608D01*
X155600500Y-112131989D01*
X160949500Y-112131989D01*
X160949500Y-112368011D01*
X160980307Y-112602014D01*
X161041393Y-112829989D01*
X161041394Y-112829992D01*
X161131713Y-113048043D01*
X161131718Y-113048054D01*
X161249721Y-113252440D01*
X161249727Y-113252450D01*
X161393408Y-113439699D01*
X161560301Y-113606592D01*
X161747550Y-113750273D01*
X161747559Y-113750278D01*
X161951945Y-113868281D01*
X161951948Y-113868282D01*
X161951951Y-113868284D01*
X162170007Y-113958606D01*
X162397986Y-114019693D01*
X162631989Y-114050500D01*
X162868011Y-114050500D01*
X163102014Y-114019693D01*
X163329993Y-113958606D01*
X163548049Y-113868284D01*
X163752450Y-113750273D01*
X163939699Y-113606592D01*
X164106592Y-113439699D01*
X164250273Y-113252450D01*
X164368284Y-113048049D01*
X164458606Y-112829993D01*
X164519693Y-112602014D01*
X164550500Y-112368011D01*
X164550500Y-112131989D01*
X164519693Y-111897986D01*
X164458606Y-111670007D01*
X164368284Y-111451951D01*
X164334863Y-111394065D01*
X164250278Y-111247559D01*
X164250272Y-111247549D01*
X164106592Y-111060301D01*
X163939699Y-110893408D01*
X163752450Y-110749727D01*
X163752440Y-110749721D01*
X163548054Y-110631718D01*
X163548043Y-110631713D01*
X163427222Y-110581667D01*
X163329993Y-110541394D01*
X163102014Y-110480307D01*
X163102007Y-110480306D01*
X162868011Y-110449500D01*
X162631989Y-110449500D01*
X162397992Y-110480306D01*
X162397990Y-110480306D01*
X162397986Y-110480307D01*
X162225640Y-110526487D01*
X162170010Y-110541393D01*
X162170007Y-110541394D01*
X161951956Y-110631713D01*
X161951945Y-110631718D01*
X161747559Y-110749721D01*
X161747549Y-110749727D01*
X161560301Y-110893408D01*
X161560297Y-110893411D01*
X161393411Y-111060297D01*
X161393408Y-111060301D01*
X161249727Y-111247549D01*
X161249721Y-111247559D01*
X161131718Y-111451945D01*
X161131713Y-111451956D01*
X161045982Y-111658931D01*
X161041394Y-111670007D01*
X160980307Y-111897986D01*
X160949500Y-112131989D01*
X155600500Y-112131989D01*
X155600500Y-111548392D01*
X155585300Y-111394066D01*
X155525232Y-111196046D01*
X155427685Y-111013550D01*
X155427683Y-111013547D01*
X155296416Y-110853596D01*
X155296403Y-110853583D01*
X155136452Y-110722316D01*
X154953955Y-110624768D01*
X154755934Y-110564699D01*
X154601608Y-110549500D01*
X153888639Y-110549500D01*
X153793351Y-110530546D01*
X153712569Y-110476570D01*
X152648430Y-109412430D01*
X152594454Y-109331648D01*
X152575500Y-109236360D01*
X152575500Y-108573395D01*
X152575500Y-108573392D01*
X152560300Y-108419066D01*
X152500232Y-108221046D01*
X152402685Y-108038550D01*
X152362753Y-107989892D01*
X152271416Y-107878596D01*
X152271403Y-107878583D01*
X152111452Y-107747316D01*
X151928955Y-107649768D01*
X151730934Y-107589699D01*
X151576608Y-107574500D01*
X150913640Y-107574500D01*
X150818352Y-107555546D01*
X150737571Y-107501570D01*
X150610537Y-107374537D01*
X150610536Y-107374536D01*
X150551457Y-107335061D01*
X150463047Y-107275987D01*
X150463036Y-107275981D01*
X150381107Y-107242046D01*
X150299168Y-107208105D01*
X150229576Y-107194263D01*
X150125192Y-107173500D01*
X150125191Y-107173500D01*
X147828531Y-107173500D01*
X147651148Y-107173500D01*
X147626565Y-107178390D01*
X147626564Y-107178390D01*
X147477180Y-107208104D01*
X147477176Y-107208105D01*
X147477174Y-107208106D01*
X147432931Y-107226432D01*
X147313289Y-107275988D01*
X147186391Y-107360781D01*
X147165807Y-107374534D01*
X145450533Y-109089807D01*
X145431074Y-109118931D01*
X145431073Y-109118930D01*
X145351989Y-109237288D01*
X145351982Y-109237303D01*
X145337764Y-109271630D01*
X145337763Y-109271634D01*
X145284105Y-109401174D01*
X145257664Y-109534105D01*
X145257663Y-109534104D01*
X145249500Y-109575145D01*
X145249500Y-111068795D01*
X145230546Y-111164083D01*
X145176570Y-111244865D01*
X145095788Y-111298841D01*
X145000500Y-111317795D01*
X144905212Y-111298841D01*
X144824431Y-111244865D01*
X144535847Y-110956282D01*
X144535843Y-110956279D01*
X144518146Y-110944454D01*
X144496772Y-110930172D01*
X144489780Y-110925500D01*
X144376073Y-110849523D01*
X144320604Y-110826547D01*
X144305755Y-110820396D01*
X144305753Y-110820395D01*
X144198543Y-110775987D01*
X144198407Y-110775960D01*
X144010078Y-110738500D01*
X144010076Y-110738500D01*
X143419500Y-110738500D01*
X143324212Y-110719546D01*
X143243430Y-110665570D01*
X143189454Y-110584788D01*
X143170500Y-110489500D01*
X143170500Y-110270107D01*
X143170498Y-110270091D01*
X143129861Y-110013512D01*
X143129860Y-110013510D01*
X143129860Y-110013507D01*
X143049579Y-109766428D01*
X142931634Y-109534949D01*
X142778931Y-109324771D01*
X142760226Y-109306066D01*
X142706253Y-109225288D01*
X142687299Y-109130000D01*
X142706253Y-109034712D01*
X142760226Y-108953933D01*
X142778931Y-108935229D01*
X142931634Y-108725051D01*
X143049579Y-108493572D01*
X143129860Y-108246493D01*
X143170500Y-107989897D01*
X143170500Y-107730103D01*
X143148263Y-107589699D01*
X143129861Y-107473512D01*
X143129860Y-107473510D01*
X143129860Y-107473507D01*
X143049579Y-107226428D01*
X142931634Y-106994949D01*
X142778931Y-106784771D01*
X142760226Y-106766066D01*
X142706253Y-106685288D01*
X142687299Y-106590000D01*
X142706253Y-106494712D01*
X142760226Y-106413933D01*
X142778931Y-106395229D01*
X142931634Y-106185051D01*
X143049579Y-105953572D01*
X143129860Y-105706493D01*
X143170500Y-105449897D01*
X143170500Y-105190103D01*
X143152675Y-105077555D01*
X143129861Y-104933512D01*
X143129860Y-104933510D01*
X143129860Y-104933507D01*
X143049579Y-104686428D01*
X142931634Y-104454949D01*
X142778931Y-104244771D01*
X142595229Y-104061069D01*
X142444569Y-103951608D01*
X142385050Y-103908365D01*
X142153577Y-103790423D01*
X142153567Y-103790419D01*
X141906493Y-103710140D01*
X141906487Y-103710138D01*
X141831190Y-103698213D01*
X141649908Y-103669501D01*
X141649899Y-103669500D01*
X141649897Y-103669500D01*
X141390103Y-103669500D01*
X141390100Y-103669500D01*
X141390091Y-103669501D01*
X141133512Y-103710138D01*
X141133506Y-103710140D01*
X140886432Y-103790419D01*
X140886422Y-103790423D01*
X140654949Y-103908365D01*
X140444774Y-104061066D01*
X140261066Y-104244774D01*
X140108365Y-104454949D01*
X139990423Y-104686422D01*
X139990419Y-104686432D01*
X139910140Y-104933506D01*
X139910138Y-104933512D01*
X139869501Y-105190091D01*
X139869500Y-105190107D01*
X139869500Y-105449892D01*
X139869501Y-105449908D01*
X139910138Y-105706487D01*
X139910140Y-105706493D01*
X139990419Y-105953567D01*
X139990423Y-105953577D01*
X140108365Y-106185050D01*
X140108366Y-106185051D01*
X140261069Y-106395229D01*
X140279773Y-106413933D01*
X140333747Y-106494712D01*
X140352701Y-106590000D01*
X140333747Y-106685288D01*
X140279773Y-106766066D01*
X140261069Y-106784771D01*
X140261066Y-106784774D01*
X140108365Y-106994949D01*
X139990423Y-107226422D01*
X139990419Y-107226432D01*
X139910140Y-107473506D01*
X139910138Y-107473512D01*
X139869501Y-107730091D01*
X139869500Y-107730107D01*
X139869500Y-107989892D01*
X139869501Y-107989908D01*
X139910138Y-108246487D01*
X139910140Y-108246493D01*
X139990419Y-108493567D01*
X139990423Y-108493577D01*
X140031093Y-108573395D01*
X140108366Y-108725051D01*
X140261069Y-108935229D01*
X140279773Y-108953933D01*
X140333747Y-109034712D01*
X140352701Y-109130000D01*
X140333747Y-109225288D01*
X140279773Y-109306066D01*
X140261069Y-109324771D01*
X140261066Y-109324774D01*
X140108365Y-109534949D01*
X139990423Y-109766422D01*
X139990419Y-109766432D01*
X139910140Y-110013506D01*
X139910138Y-110013512D01*
X139869501Y-110270091D01*
X139869500Y-110270107D01*
X139869500Y-110489500D01*
X139850546Y-110584788D01*
X139796570Y-110665570D01*
X139715788Y-110719546D01*
X139620500Y-110738500D01*
X138789917Y-110738500D01*
X138601593Y-110775960D01*
X138601462Y-110775987D01*
X138601457Y-110775988D01*
X138601456Y-110775988D01*
X138601453Y-110775989D01*
X138423928Y-110849522D01*
X138423925Y-110849523D01*
X138264155Y-110956279D01*
X138264153Y-110956280D01*
X137675069Y-111545363D01*
X137594288Y-111599339D01*
X137499000Y-111618293D01*
X137403711Y-111599339D01*
X137322930Y-111545362D01*
X137268954Y-111464581D01*
X137250000Y-111369293D01*
X137250000Y-103458391D01*
X145089500Y-103458391D01*
X145089500Y-104661608D01*
X145104699Y-104815934D01*
X145164768Y-105013955D01*
X145262316Y-105196452D01*
X145393583Y-105356403D01*
X145393596Y-105356416D01*
X145553547Y-105487683D01*
X145553548Y-105487683D01*
X145553550Y-105487685D01*
X145736046Y-105585232D01*
X145847841Y-105619144D01*
X145934065Y-105645300D01*
X145949265Y-105646796D01*
X146088392Y-105660500D01*
X146088395Y-105660500D01*
X147291605Y-105660500D01*
X147291608Y-105660500D01*
X147445934Y-105645300D01*
X147643954Y-105585232D01*
X147826450Y-105487685D01*
X147986410Y-105356410D01*
X148117685Y-105196450D01*
X148215232Y-105013954D01*
X148275300Y-104815934D01*
X148290500Y-104661608D01*
X148290500Y-103934028D01*
X150169500Y-103934028D01*
X150169500Y-104185971D01*
X150208909Y-104434782D01*
X150208910Y-104434785D01*
X150286759Y-104674379D01*
X150401130Y-104898845D01*
X150401133Y-104898849D01*
X150401134Y-104898851D01*
X150438659Y-104950500D01*
X150549207Y-105102656D01*
X150727344Y-105280793D01*
X150931155Y-105428870D01*
X151155621Y-105543241D01*
X151395215Y-105621090D01*
X151482729Y-105634951D01*
X151644028Y-105660499D01*
X151644035Y-105660499D01*
X151644038Y-105660500D01*
X151644041Y-105660500D01*
X151895959Y-105660500D01*
X151895962Y-105660500D01*
X151895965Y-105660499D01*
X151895971Y-105660499D01*
X152013513Y-105641881D01*
X152144785Y-105621090D01*
X152384379Y-105543241D01*
X152608845Y-105428870D01*
X152812656Y-105280793D01*
X152990793Y-105102656D01*
X153138870Y-104898845D01*
X153253241Y-104674379D01*
X153331090Y-104434785D01*
X153361185Y-104244774D01*
X153370499Y-104185971D01*
X153370500Y-104185959D01*
X153370500Y-103934040D01*
X153370499Y-103934028D01*
X153335037Y-103710138D01*
X153331090Y-103685215D01*
X153253241Y-103445621D01*
X153138870Y-103221155D01*
X152990793Y-103017344D01*
X152812656Y-102839207D01*
X152708578Y-102763590D01*
X152608851Y-102691134D01*
X152608849Y-102691133D01*
X152608845Y-102691130D01*
X152384379Y-102576759D01*
X152384376Y-102576758D01*
X152384374Y-102576757D01*
X152144782Y-102498909D01*
X151895971Y-102459500D01*
X151895962Y-102459500D01*
X151644038Y-102459500D01*
X151644028Y-102459500D01*
X151395217Y-102498909D01*
X151155625Y-102576757D01*
X151155621Y-102576758D01*
X151155621Y-102576759D01*
X150931155Y-102691130D01*
X150931153Y-102691131D01*
X150931148Y-102691134D01*
X150727347Y-102839204D01*
X150549204Y-103017347D01*
X150401134Y-103221148D01*
X150401131Y-103221153D01*
X150401130Y-103221155D01*
X150358885Y-103304066D01*
X150286757Y-103445625D01*
X150208909Y-103685217D01*
X150169500Y-103934028D01*
X148290500Y-103934028D01*
X148290500Y-103458392D01*
X148275300Y-103304066D01*
X148215232Y-103106046D01*
X148117685Y-102923550D01*
X148117683Y-102923547D01*
X147986416Y-102763596D01*
X147986403Y-102763583D01*
X147826452Y-102632316D01*
X147643955Y-102534768D01*
X147445934Y-102474699D01*
X147291608Y-102459500D01*
X146088392Y-102459500D01*
X146088391Y-102459500D01*
X145934065Y-102474699D01*
X145736044Y-102534768D01*
X145553547Y-102632316D01*
X145393596Y-102763583D01*
X145393583Y-102763596D01*
X145262316Y-102923547D01*
X145164768Y-103106044D01*
X145104699Y-103304065D01*
X145089500Y-103458391D01*
X137250000Y-103458391D01*
X137250000Y-102750000D01*
X136296912Y-101849861D01*
X129906904Y-95814854D01*
X129850643Y-95735648D01*
X129828976Y-95640940D01*
X129845200Y-95545150D01*
X129896848Y-95462860D01*
X129901737Y-95457827D01*
X132869457Y-92490107D01*
X139869500Y-92490107D01*
X139869500Y-92749892D01*
X139869501Y-92749908D01*
X139910138Y-93006487D01*
X139910140Y-93006493D01*
X139990419Y-93253567D01*
X139990423Y-93253577D01*
X140108365Y-93485050D01*
X140108366Y-93485051D01*
X140261069Y-93695229D01*
X140279773Y-93713933D01*
X140333747Y-93794712D01*
X140352701Y-93890000D01*
X140333747Y-93985288D01*
X140279773Y-94066066D01*
X140261069Y-94084771D01*
X140261066Y-94084774D01*
X140108365Y-94294949D01*
X139990423Y-94526422D01*
X139990419Y-94526432D01*
X139910140Y-94773506D01*
X139910138Y-94773512D01*
X139869501Y-95030091D01*
X139869500Y-95030107D01*
X139869500Y-95289892D01*
X139869501Y-95289908D01*
X139910138Y-95546487D01*
X139910140Y-95546493D01*
X139990419Y-95793567D01*
X139990423Y-95793577D01*
X140108365Y-96025050D01*
X140147892Y-96079454D01*
X140261069Y-96235229D01*
X140279773Y-96253933D01*
X140333747Y-96334712D01*
X140352701Y-96430000D01*
X140333747Y-96525288D01*
X140279773Y-96606066D01*
X140261069Y-96624771D01*
X140261066Y-96624774D01*
X140108365Y-96834949D01*
X139990423Y-97066422D01*
X139990419Y-97066432D01*
X139910140Y-97313506D01*
X139910138Y-97313512D01*
X139869501Y-97570091D01*
X139869500Y-97570107D01*
X139869500Y-97829892D01*
X139869501Y-97829908D01*
X139910138Y-98086487D01*
X139910140Y-98086493D01*
X139990419Y-98333567D01*
X139990423Y-98333577D01*
X140108365Y-98565050D01*
X140108366Y-98565051D01*
X140261069Y-98775229D01*
X140279773Y-98793933D01*
X140333747Y-98874712D01*
X140352701Y-98970000D01*
X140333747Y-99065288D01*
X140279773Y-99146066D01*
X140261069Y-99164771D01*
X140261066Y-99164774D01*
X140108365Y-99374949D01*
X139990423Y-99606422D01*
X139990419Y-99606432D01*
X139910140Y-99853506D01*
X139910138Y-99853512D01*
X139869501Y-100110091D01*
X139869500Y-100110107D01*
X139869500Y-100369892D01*
X139869501Y-100369908D01*
X139910138Y-100626487D01*
X139910140Y-100626493D01*
X139990419Y-100873567D01*
X139990423Y-100873577D01*
X140108365Y-101105050D01*
X140174478Y-101196047D01*
X140261069Y-101315229D01*
X140444771Y-101498931D01*
X140654949Y-101651634D01*
X140886428Y-101769579D01*
X141133507Y-101849860D01*
X141133510Y-101849860D01*
X141133512Y-101849861D01*
X141307135Y-101877359D01*
X141390103Y-101890500D01*
X141390107Y-101890500D01*
X141649893Y-101890500D01*
X141649897Y-101890500D01*
X141906493Y-101849860D01*
X142153572Y-101769579D01*
X142385051Y-101651634D01*
X142527152Y-101548392D01*
X159267000Y-101548392D01*
X159267000Y-103951601D01*
X159267001Y-103951608D01*
X159282199Y-104105930D01*
X159282200Y-104105936D01*
X159342268Y-104303952D01*
X159342271Y-104303960D01*
X159439815Y-104486450D01*
X159571083Y-104646403D01*
X159571096Y-104646416D01*
X159708198Y-104758931D01*
X159731050Y-104777685D01*
X159801424Y-104815300D01*
X159913539Y-104875228D01*
X159913543Y-104875229D01*
X159913546Y-104875231D01*
X160111567Y-104935300D01*
X160265893Y-104950500D01*
X162669106Y-104950499D01*
X162823433Y-104935300D01*
X163021454Y-104875231D01*
X163203950Y-104777685D01*
X163363910Y-104646410D01*
X163495185Y-104486450D01*
X163592731Y-104303954D01*
X163652800Y-104105933D01*
X163668000Y-103951607D01*
X163667999Y-101548394D01*
X163652800Y-101394067D01*
X163592731Y-101196046D01*
X163592729Y-101196043D01*
X163592728Y-101196039D01*
X163495184Y-101013549D01*
X163363916Y-100853596D01*
X163363903Y-100853583D01*
X163203950Y-100722315D01*
X163021460Y-100624771D01*
X163021452Y-100624768D01*
X162823432Y-100564699D01*
X162696779Y-100552225D01*
X162669107Y-100549500D01*
X162669105Y-100549500D01*
X160265898Y-100549500D01*
X160265891Y-100549501D01*
X160111569Y-100564699D01*
X160111563Y-100564700D01*
X159913547Y-100624768D01*
X159913539Y-100624771D01*
X159731049Y-100722315D01*
X159571096Y-100853583D01*
X159571083Y-100853596D01*
X159439815Y-101013549D01*
X159342271Y-101196039D01*
X159342268Y-101196047D01*
X159282199Y-101394067D01*
X159267000Y-101548392D01*
X142527152Y-101548392D01*
X142595229Y-101498931D01*
X142778931Y-101315229D01*
X142931634Y-101105051D01*
X143049579Y-100873572D01*
X143129860Y-100626493D01*
X143170500Y-100369897D01*
X143170500Y-100110103D01*
X143129860Y-99853507D01*
X143049579Y-99606428D01*
X142931634Y-99374949D01*
X142778931Y-99164771D01*
X142760226Y-99146066D01*
X142706253Y-99065288D01*
X142687299Y-98970000D01*
X142706253Y-98874712D01*
X142760226Y-98793933D01*
X142778931Y-98775229D01*
X142931634Y-98565051D01*
X143049579Y-98333572D01*
X143129860Y-98086493D01*
X143170500Y-97829897D01*
X143170500Y-97570103D01*
X143129860Y-97313507D01*
X143049579Y-97066428D01*
X142931634Y-96834949D01*
X142778931Y-96624771D01*
X142760226Y-96606066D01*
X142740735Y-96576894D01*
X142718151Y-96550052D01*
X142713961Y-96536824D01*
X142706253Y-96525288D01*
X142699408Y-96490877D01*
X142688815Y-96457432D01*
X142690005Y-96443608D01*
X142687299Y-96430000D01*
X142694143Y-96395592D01*
X142697155Y-96360636D01*
X142703095Y-96350586D01*
X142706253Y-96334712D01*
X142741904Y-96274400D01*
X142750503Y-96263656D01*
X142778931Y-96235229D01*
X142834715Y-96158447D01*
X142838356Y-96153900D01*
X142871155Y-96126304D01*
X142902649Y-96097192D01*
X142908185Y-96095149D01*
X142912699Y-96091352D01*
X142953571Y-96078406D01*
X142993799Y-96063566D01*
X143002616Y-96062871D01*
X143005319Y-96062016D01*
X143009220Y-96062352D01*
X143032751Y-96060500D01*
X144840500Y-96060500D01*
X144935788Y-96079454D01*
X145016570Y-96133430D01*
X145070546Y-96214212D01*
X145089500Y-96309500D01*
X145089500Y-96565971D01*
X145128909Y-96814782D01*
X145128910Y-96814785D01*
X145206759Y-97054379D01*
X145321130Y-97278845D01*
X145321133Y-97278849D01*
X145321134Y-97278851D01*
X145346313Y-97313507D01*
X145469207Y-97482656D01*
X145647344Y-97660793D01*
X145851155Y-97808870D01*
X146075621Y-97923241D01*
X146315215Y-98001090D01*
X146402729Y-98014951D01*
X146564028Y-98040499D01*
X146564035Y-98040499D01*
X146564038Y-98040500D01*
X146564041Y-98040500D01*
X146815959Y-98040500D01*
X146815962Y-98040500D01*
X146815965Y-98040499D01*
X146815971Y-98040499D01*
X146933513Y-98021881D01*
X147064785Y-98001090D01*
X147304379Y-97923241D01*
X147528845Y-97808870D01*
X147732656Y-97660793D01*
X147783933Y-97609515D01*
X147864712Y-97555542D01*
X147960000Y-97536588D01*
X148055288Y-97555542D01*
X148136066Y-97609515D01*
X148187344Y-97660793D01*
X148391155Y-97808870D01*
X148615621Y-97923241D01*
X148855215Y-98001090D01*
X148942729Y-98014951D01*
X149104028Y-98040499D01*
X149104035Y-98040499D01*
X149104038Y-98040500D01*
X149104041Y-98040500D01*
X149355959Y-98040500D01*
X149355962Y-98040500D01*
X149355965Y-98040499D01*
X149355971Y-98040499D01*
X149473513Y-98021881D01*
X149604785Y-98001090D01*
X149844379Y-97923241D01*
X150068845Y-97808870D01*
X150272656Y-97660793D01*
X150323933Y-97609515D01*
X150404712Y-97555542D01*
X150500000Y-97536588D01*
X150595288Y-97555542D01*
X150676066Y-97609515D01*
X150727344Y-97660793D01*
X150931155Y-97808870D01*
X151155621Y-97923241D01*
X151395215Y-98001090D01*
X151482729Y-98014951D01*
X151644028Y-98040499D01*
X151644035Y-98040499D01*
X151644038Y-98040500D01*
X151644041Y-98040500D01*
X151895959Y-98040500D01*
X151895962Y-98040500D01*
X151895965Y-98040499D01*
X151895971Y-98040499D01*
X152013513Y-98021881D01*
X152144785Y-98001090D01*
X152384379Y-97923241D01*
X152608845Y-97808870D01*
X152812656Y-97660793D01*
X152863933Y-97609515D01*
X152944712Y-97555542D01*
X153040000Y-97536588D01*
X153135288Y-97555542D01*
X153216066Y-97609515D01*
X153267344Y-97660793D01*
X153471155Y-97808870D01*
X153695621Y-97923241D01*
X153935215Y-98001090D01*
X154022729Y-98014951D01*
X154184028Y-98040499D01*
X154184035Y-98040499D01*
X154184038Y-98040500D01*
X154184041Y-98040500D01*
X154435959Y-98040500D01*
X154435962Y-98040500D01*
X154435965Y-98040499D01*
X154435971Y-98040499D01*
X154553513Y-98021881D01*
X154684785Y-98001090D01*
X154924379Y-97923241D01*
X155148845Y-97808870D01*
X155352656Y-97660793D01*
X155530793Y-97482656D01*
X155678870Y-97278845D01*
X155793241Y-97054379D01*
X155871090Y-96814785D01*
X155901185Y-96624774D01*
X155910499Y-96565971D01*
X155910500Y-96565959D01*
X155910500Y-96314040D01*
X155910499Y-96314028D01*
X155880766Y-96126304D01*
X155871090Y-96065215D01*
X155805234Y-95862534D01*
X155793816Y-95766054D01*
X155820187Y-95672547D01*
X155865975Y-95609523D01*
X158499464Y-92976036D01*
X158538936Y-92916959D01*
X158598013Y-92828547D01*
X158647658Y-92708692D01*
X158665895Y-92664666D01*
X158700500Y-92490692D01*
X158700500Y-92313308D01*
X158700500Y-86486309D01*
X158665894Y-86312334D01*
X158598013Y-86148453D01*
X158499464Y-86000965D01*
X158499462Y-86000963D01*
X158374035Y-85875535D01*
X158374035Y-85875536D01*
X155673430Y-83174930D01*
X155619454Y-83094148D01*
X155600500Y-82998860D01*
X155600500Y-82881989D01*
X160949500Y-82881989D01*
X160949500Y-83118011D01*
X160980307Y-83352014D01*
X161041394Y-83579993D01*
X161081667Y-83677222D01*
X161131713Y-83798043D01*
X161131718Y-83798054D01*
X161249721Y-84002440D01*
X161249727Y-84002450D01*
X161393408Y-84189699D01*
X161560301Y-84356592D01*
X161747550Y-84500273D01*
X161747559Y-84500278D01*
X161951945Y-84618281D01*
X161951948Y-84618282D01*
X161951951Y-84618284D01*
X162170007Y-84708606D01*
X162397986Y-84769693D01*
X162631989Y-84800500D01*
X162868011Y-84800500D01*
X163102014Y-84769693D01*
X163329993Y-84708606D01*
X163548049Y-84618284D01*
X163752450Y-84500273D01*
X163939699Y-84356592D01*
X164106592Y-84189699D01*
X164250273Y-84002450D01*
X164368284Y-83798049D01*
X164458606Y-83579993D01*
X164519693Y-83352014D01*
X164550500Y-83118011D01*
X164550500Y-82881989D01*
X164519693Y-82647986D01*
X164458606Y-82420007D01*
X164368284Y-82201951D01*
X164334863Y-82144065D01*
X164250278Y-81997559D01*
X164250272Y-81997549D01*
X164106592Y-81810301D01*
X163939699Y-81643408D01*
X163752450Y-81499727D01*
X163704973Y-81472316D01*
X163548054Y-81381718D01*
X163548043Y-81381713D01*
X163427222Y-81331667D01*
X163329993Y-81291394D01*
X163102014Y-81230307D01*
X163102007Y-81230306D01*
X162868011Y-81199500D01*
X162631989Y-81199500D01*
X162397992Y-81230306D01*
X162397990Y-81230306D01*
X162397986Y-81230307D01*
X162225640Y-81276487D01*
X162170010Y-81291393D01*
X162170007Y-81291394D01*
X161951956Y-81381713D01*
X161951945Y-81381718D01*
X161747559Y-81499721D01*
X161747549Y-81499727D01*
X161560301Y-81643408D01*
X161560297Y-81643411D01*
X161393411Y-81810297D01*
X161393408Y-81810301D01*
X161249727Y-81997549D01*
X161249721Y-81997559D01*
X161131718Y-82201945D01*
X161131713Y-82201956D01*
X161078632Y-82330107D01*
X161041394Y-82420007D01*
X160980307Y-82647986D01*
X160980306Y-82647990D01*
X160980306Y-82647992D01*
X160971925Y-82711651D01*
X160949500Y-82881989D01*
X155600500Y-82881989D01*
X155600500Y-82298395D01*
X155600500Y-82298392D01*
X155585300Y-82144066D01*
X155525232Y-81946046D01*
X155427685Y-81763550D01*
X155427683Y-81763547D01*
X155296416Y-81603596D01*
X155296403Y-81603583D01*
X155136452Y-81472316D01*
X154953955Y-81374768D01*
X154755934Y-81314699D01*
X154601608Y-81299500D01*
X153888639Y-81299500D01*
X153793351Y-81280546D01*
X153712569Y-81226570D01*
X152648430Y-80162430D01*
X152594454Y-80081648D01*
X152575500Y-79986360D01*
X152575500Y-79323395D01*
X152575500Y-79323392D01*
X152560300Y-79169066D01*
X152500232Y-78971046D01*
X152402685Y-78788550D01*
X152402683Y-78788547D01*
X152271416Y-78628596D01*
X152271403Y-78628583D01*
X152111452Y-78497316D01*
X151928955Y-78399768D01*
X151730934Y-78339699D01*
X151576608Y-78324500D01*
X150848392Y-78324500D01*
X150848391Y-78324500D01*
X150694065Y-78339699D01*
X150496044Y-78399768D01*
X150313547Y-78497316D01*
X150153596Y-78628583D01*
X150153583Y-78628596D01*
X150022316Y-78788547D01*
X149969598Y-78887175D01*
X149907962Y-78962277D01*
X149822279Y-79008075D01*
X149725592Y-79017597D01*
X149632621Y-78989394D01*
X149557519Y-78927758D01*
X149530402Y-78887175D01*
X149477683Y-78788547D01*
X149346416Y-78628596D01*
X149346403Y-78628583D01*
X149186452Y-78497316D01*
X149003955Y-78399768D01*
X148805934Y-78339699D01*
X148651608Y-78324500D01*
X147923392Y-78324500D01*
X147923391Y-78324500D01*
X147769065Y-78339699D01*
X147571044Y-78399768D01*
X147388547Y-78497316D01*
X147228596Y-78628583D01*
X147228583Y-78628596D01*
X147097316Y-78788547D01*
X146999768Y-78971044D01*
X146939699Y-79169065D01*
X146924500Y-79323391D01*
X146924500Y-80676608D01*
X146939699Y-80830934D01*
X146999768Y-81028955D01*
X147097316Y-81211452D01*
X147137312Y-81260187D01*
X147183111Y-81345870D01*
X147192634Y-81442557D01*
X147164432Y-81535528D01*
X147102797Y-81610630D01*
X147096418Y-81615693D01*
X147060309Y-81643401D01*
X147060297Y-81643411D01*
X146893411Y-81810297D01*
X146893408Y-81810301D01*
X146749727Y-81997549D01*
X146749721Y-81997559D01*
X146631718Y-82201945D01*
X146631713Y-82201956D01*
X146578632Y-82330107D01*
X146541394Y-82420007D01*
X146480307Y-82647986D01*
X146480306Y-82647990D01*
X146480306Y-82647992D01*
X146471925Y-82711651D01*
X146449500Y-82881989D01*
X146449500Y-83118011D01*
X146480307Y-83352014D01*
X146541394Y-83579993D01*
X146581667Y-83677222D01*
X146631713Y-83798043D01*
X146631718Y-83798054D01*
X146749721Y-84002440D01*
X146749727Y-84002450D01*
X146893408Y-84189699D01*
X147060301Y-84356592D01*
X147247550Y-84500273D01*
X147247559Y-84500278D01*
X147451945Y-84618281D01*
X147451948Y-84618282D01*
X147451951Y-84618284D01*
X147670007Y-84708606D01*
X147897986Y-84769693D01*
X148131989Y-84800500D01*
X148368011Y-84800500D01*
X148602014Y-84769693D01*
X148829993Y-84708606D01*
X149048049Y-84618284D01*
X149252450Y-84500273D01*
X149439699Y-84356592D01*
X149606592Y-84189699D01*
X149750273Y-84002450D01*
X149868284Y-83798049D01*
X149958606Y-83579993D01*
X150019693Y-83352014D01*
X150050500Y-83118011D01*
X150050500Y-82881989D01*
X150019693Y-82647986D01*
X149958606Y-82420007D01*
X149868284Y-82201951D01*
X149834863Y-82144065D01*
X149750278Y-81997559D01*
X149750272Y-81997549D01*
X149606592Y-81810301D01*
X149439699Y-81643408D01*
X149439698Y-81643407D01*
X149436840Y-81640901D01*
X149435678Y-81639387D01*
X149433935Y-81637644D01*
X149434164Y-81637414D01*
X149417081Y-81615154D01*
X149394112Y-81592232D01*
X149387764Y-81576952D01*
X149377691Y-81563826D01*
X149369289Y-81532479D01*
X149356840Y-81502510D01*
X149356823Y-81485964D01*
X149352540Y-81469983D01*
X149356774Y-81437808D01*
X149356741Y-81405355D01*
X149362706Y-81392724D01*
X149365216Y-81373658D01*
X149393829Y-81315558D01*
X149400682Y-81305278D01*
X149477685Y-81211450D01*
X149536105Y-81102153D01*
X149542823Y-81092078D01*
X149568750Y-81066097D01*
X149592037Y-81037723D01*
X149602816Y-81031961D01*
X149611451Y-81023309D01*
X149645351Y-81009226D01*
X149677720Y-80991925D01*
X149689883Y-80990727D01*
X149701173Y-80986037D01*
X149737880Y-80985999D01*
X149774407Y-80982402D01*
X149786104Y-80985950D01*
X149798328Y-80985938D01*
X149832251Y-80999949D01*
X149867379Y-81010605D01*
X149876828Y-81018360D01*
X149888125Y-81023026D01*
X149914105Y-81048953D01*
X149942480Y-81072240D01*
X149952566Y-81087335D01*
X149956894Y-81091654D01*
X149959263Y-81097357D01*
X149969598Y-81112824D01*
X150022316Y-81211452D01*
X150153583Y-81371403D01*
X150153596Y-81371416D01*
X150313547Y-81502683D01*
X150313548Y-81502683D01*
X150313550Y-81502685D01*
X150496046Y-81600232D01*
X150547015Y-81615693D01*
X150694065Y-81660300D01*
X150709265Y-81661796D01*
X150848392Y-81675500D01*
X150848395Y-81675500D01*
X151511360Y-81675500D01*
X151606648Y-81694454D01*
X151687430Y-81748430D01*
X152776570Y-82837569D01*
X152830546Y-82918351D01*
X152849500Y-83013639D01*
X152849500Y-83701608D01*
X152864699Y-83855934D01*
X152924768Y-84053955D01*
X153022316Y-84236452D01*
X153153583Y-84396403D01*
X153153596Y-84396416D01*
X153313547Y-84527683D01*
X153313548Y-84527683D01*
X153313550Y-84527685D01*
X153496046Y-84625232D01*
X153607841Y-84659144D01*
X153694065Y-84685300D01*
X153709265Y-84686796D01*
X153848392Y-84700500D01*
X153848395Y-84700500D01*
X154548861Y-84700500D01*
X154644149Y-84719454D01*
X154724931Y-84773430D01*
X156826570Y-86875069D01*
X156880546Y-86955851D01*
X156899500Y-87051139D01*
X156899500Y-91925860D01*
X156880546Y-92021148D01*
X156826570Y-92101930D01*
X156601430Y-92327070D01*
X156520648Y-92381046D01*
X156425360Y-92400000D01*
X154449000Y-92400000D01*
X154353712Y-92381046D01*
X154272930Y-92327070D01*
X154218954Y-92246288D01*
X154200000Y-92151000D01*
X154200000Y-89949500D01*
X154218954Y-89854212D01*
X154272930Y-89773430D01*
X154353712Y-89719454D01*
X154449000Y-89700500D01*
X154601605Y-89700500D01*
X154601608Y-89700500D01*
X154755934Y-89685300D01*
X154953954Y-89625232D01*
X155136450Y-89527685D01*
X155292317Y-89399769D01*
X155296403Y-89396416D01*
X155296404Y-89396414D01*
X155296410Y-89396410D01*
X155427685Y-89236450D01*
X155525232Y-89053954D01*
X155585300Y-88855934D01*
X155600500Y-88701608D01*
X155600500Y-87298392D01*
X155585300Y-87144066D01*
X155525232Y-86946046D01*
X155427685Y-86763550D01*
X155427683Y-86763547D01*
X155296416Y-86603596D01*
X155296403Y-86603583D01*
X155136452Y-86472316D01*
X154953955Y-86374768D01*
X154755934Y-86314699D01*
X154601608Y-86299500D01*
X153848392Y-86299500D01*
X153848391Y-86299500D01*
X153694065Y-86314699D01*
X153496044Y-86374768D01*
X153313547Y-86472316D01*
X153153596Y-86603583D01*
X153153583Y-86603596D01*
X153022316Y-86763547D01*
X152924768Y-86946044D01*
X152864699Y-87144065D01*
X152849500Y-87298391D01*
X152849500Y-87998860D01*
X152830546Y-88094148D01*
X152776570Y-88174930D01*
X151699930Y-89251570D01*
X151619148Y-89305546D01*
X151523860Y-89324500D01*
X150848391Y-89324500D01*
X150694065Y-89339699D01*
X150496043Y-89399769D01*
X150496042Y-89399769D01*
X150395697Y-89453405D01*
X150302726Y-89481607D01*
X150206038Y-89472084D01*
X150120355Y-89426285D01*
X150058721Y-89351183D01*
X150030519Y-89258212D01*
X150034627Y-89193243D01*
X150033803Y-89193151D01*
X150050499Y-89044968D01*
X150050500Y-89044953D01*
X150050500Y-86955046D01*
X150050499Y-86955031D01*
X150035369Y-86820754D01*
X150035368Y-86820745D01*
X149975789Y-86650478D01*
X149975786Y-86650473D01*
X149975785Y-86650470D01*
X149879819Y-86497742D01*
X149879817Y-86497740D01*
X149879816Y-86497738D01*
X149752262Y-86370184D01*
X149752259Y-86370182D01*
X149752257Y-86370180D01*
X149599529Y-86274214D01*
X149599524Y-86274212D01*
X149599522Y-86274211D01*
X149429255Y-86214632D01*
X149429251Y-86214631D01*
X149429245Y-86214630D01*
X149294968Y-86199500D01*
X149294954Y-86199500D01*
X147205046Y-86199500D01*
X147205031Y-86199500D01*
X147070754Y-86214630D01*
X147070746Y-86214631D01*
X147070745Y-86214632D01*
X146900478Y-86274211D01*
X146900476Y-86274211D01*
X146900476Y-86274212D01*
X146900470Y-86274214D01*
X146747742Y-86370180D01*
X146620180Y-86497742D01*
X146524214Y-86650470D01*
X146524211Y-86650476D01*
X146524211Y-86650478D01*
X146484646Y-86763550D01*
X146464632Y-86820746D01*
X146464630Y-86820754D01*
X146449500Y-86955031D01*
X146449500Y-89044968D01*
X146464630Y-89179245D01*
X146464631Y-89179251D01*
X146464632Y-89179255D01*
X146524211Y-89349522D01*
X146524212Y-89349523D01*
X146524214Y-89349529D01*
X146620180Y-89502257D01*
X146620182Y-89502259D01*
X146620184Y-89502262D01*
X146747738Y-89629816D01*
X146747740Y-89629817D01*
X146747742Y-89629819D01*
X146885363Y-89716292D01*
X146955962Y-89783037D01*
X146995644Y-89871718D01*
X146998369Y-89968835D01*
X146991165Y-89999406D01*
X146939700Y-90169064D01*
X146924500Y-90323391D01*
X146924500Y-91470500D01*
X146905546Y-91565788D01*
X146851570Y-91646570D01*
X146770788Y-91700546D01*
X146675500Y-91719500D01*
X143032751Y-91719500D01*
X142937463Y-91700546D01*
X142856681Y-91646570D01*
X142831306Y-91616859D01*
X142778933Y-91544774D01*
X142778931Y-91544771D01*
X142595229Y-91361069D01*
X142385051Y-91208366D01*
X142385052Y-91208366D01*
X142385050Y-91208365D01*
X142153577Y-91090423D01*
X142153567Y-91090419D01*
X141906493Y-91010140D01*
X141906487Y-91010138D01*
X141649908Y-90969501D01*
X141649899Y-90969500D01*
X141649897Y-90969500D01*
X141390103Y-90969500D01*
X141390100Y-90969500D01*
X141390091Y-90969501D01*
X141133512Y-91010138D01*
X141133506Y-91010140D01*
X140886432Y-91090419D01*
X140886422Y-91090423D01*
X140654949Y-91208365D01*
X140444774Y-91361066D01*
X140261066Y-91544774D01*
X140108365Y-91754949D01*
X139990423Y-91986422D01*
X139990419Y-91986432D01*
X139910140Y-92233506D01*
X139910138Y-92233512D01*
X139869501Y-92490091D01*
X139869500Y-92490107D01*
X132869457Y-92490107D01*
X139658829Y-85700734D01*
X139678129Y-85687838D01*
X139694369Y-85671251D01*
X139718129Y-85661112D01*
X139739608Y-85646761D01*
X139762375Y-85642232D01*
X139783728Y-85633121D01*
X139809560Y-85632846D01*
X139834896Y-85627807D01*
X139857662Y-85632335D01*
X139880878Y-85632089D01*
X139904849Y-85641721D01*
X139930184Y-85646761D01*
X139949486Y-85659658D01*
X139971027Y-85668314D01*
X139983913Y-85682661D01*
X140010966Y-85700737D01*
X140040452Y-85736280D01*
X140049488Y-85749498D01*
X140108366Y-85865051D01*
X140261069Y-86075229D01*
X140296169Y-86110329D01*
X140309257Y-86129473D01*
X140319395Y-86153233D01*
X140333747Y-86174712D01*
X140338275Y-86197479D01*
X140347387Y-86218832D01*
X140347661Y-86244664D01*
X140352701Y-86270000D01*
X140348172Y-86292766D01*
X140348419Y-86315982D01*
X140338786Y-86339953D01*
X140333747Y-86365288D01*
X140320849Y-86384590D01*
X140312194Y-86406131D01*
X140294123Y-86424588D01*
X140279773Y-86446066D01*
X140261069Y-86464771D01*
X140261066Y-86464774D01*
X140108365Y-86674949D01*
X139990423Y-86906422D01*
X139990419Y-86906432D01*
X139910140Y-87153506D01*
X139910138Y-87153512D01*
X139869501Y-87410091D01*
X139869500Y-87410107D01*
X139869500Y-87669892D01*
X139869501Y-87669908D01*
X139910138Y-87926487D01*
X139910140Y-87926493D01*
X139990419Y-88173567D01*
X139990423Y-88173577D01*
X140108365Y-88405050D01*
X140108366Y-88405051D01*
X140261069Y-88615229D01*
X140444771Y-88798931D01*
X140654949Y-88951634D01*
X140886428Y-89069579D01*
X141133507Y-89149860D01*
X141133510Y-89149860D01*
X141133512Y-89149861D01*
X141307135Y-89177359D01*
X141390103Y-89190500D01*
X141390107Y-89190500D01*
X141649893Y-89190500D01*
X141649897Y-89190500D01*
X141906493Y-89149860D01*
X142153572Y-89069579D01*
X142385051Y-88951634D01*
X142595229Y-88798931D01*
X142778931Y-88615229D01*
X142931634Y-88405051D01*
X143049579Y-88173572D01*
X143129860Y-87926493D01*
X143170500Y-87669897D01*
X143170500Y-87410103D01*
X143129860Y-87153507D01*
X143049579Y-86906428D01*
X142931634Y-86674949D01*
X142778931Y-86464771D01*
X142760226Y-86446066D01*
X142706253Y-86365288D01*
X142687299Y-86270000D01*
X142706253Y-86174712D01*
X142760226Y-86093933D01*
X142778931Y-86075229D01*
X142931634Y-85865051D01*
X143049579Y-85633572D01*
X143129860Y-85386493D01*
X143170500Y-85129897D01*
X143170500Y-84870103D01*
X143129860Y-84613507D01*
X143049579Y-84366428D01*
X142931634Y-84134949D01*
X142778931Y-83924771D01*
X142760226Y-83906066D01*
X142706253Y-83825288D01*
X142687299Y-83730000D01*
X142706253Y-83634712D01*
X142760226Y-83553933D01*
X142778931Y-83535229D01*
X142931634Y-83325051D01*
X143049579Y-83093572D01*
X143129860Y-82846493D01*
X143170500Y-82589897D01*
X143170500Y-82330103D01*
X143129860Y-82073507D01*
X143049579Y-81826428D01*
X142931634Y-81594949D01*
X142778931Y-81384771D01*
X142760226Y-81366066D01*
X142706253Y-81285288D01*
X142687299Y-81190000D01*
X142706253Y-81094712D01*
X142760226Y-81013933D01*
X142778931Y-80995229D01*
X142931634Y-80785051D01*
X143049579Y-80553572D01*
X143129860Y-80306493D01*
X143170500Y-80049897D01*
X143170500Y-79790103D01*
X143129860Y-79533507D01*
X143049579Y-79286428D01*
X142931634Y-79054949D01*
X142778931Y-78844771D01*
X142595229Y-78661069D01*
X142550534Y-78628596D01*
X142385050Y-78508365D01*
X142153577Y-78390423D01*
X142153567Y-78390419D01*
X141906493Y-78310140D01*
X141906487Y-78310138D01*
X141649908Y-78269501D01*
X141649899Y-78269500D01*
X141649897Y-78269500D01*
X141390103Y-78269500D01*
X141390100Y-78269500D01*
X141390091Y-78269501D01*
X141133512Y-78310138D01*
X141133506Y-78310140D01*
X140886432Y-78390419D01*
X140886422Y-78390423D01*
X140654949Y-78508365D01*
X140444774Y-78661066D01*
X140261066Y-78844774D01*
X140108365Y-79054949D01*
X139990423Y-79286422D01*
X139990419Y-79286432D01*
X139910140Y-79533506D01*
X139910138Y-79533512D01*
X139869501Y-79790091D01*
X139869500Y-79790107D01*
X139869500Y-80049892D01*
X139869501Y-80049908D01*
X139910138Y-80306487D01*
X139910140Y-80306493D01*
X139990419Y-80553567D01*
X139990423Y-80553577D01*
X140108365Y-80785050D01*
X140261066Y-80995225D01*
X140261069Y-80995229D01*
X140279773Y-81013933D01*
X140333747Y-81094712D01*
X140352701Y-81190000D01*
X140333747Y-81285288D01*
X140279773Y-81366066D01*
X140264127Y-81381713D01*
X140261066Y-81384774D01*
X140108365Y-81594949D01*
X139990423Y-81826422D01*
X139990419Y-81826432D01*
X139910140Y-82073506D01*
X139910138Y-82073512D01*
X139869501Y-82330091D01*
X139869500Y-82330107D01*
X139869500Y-82589903D01*
X139870267Y-82599650D01*
X139868408Y-82599796D01*
X139865121Y-82683423D01*
X139824445Y-82771653D01*
X139799072Y-82801361D01*
X128472762Y-94127671D01*
X128391980Y-94181647D01*
X128296692Y-94200601D01*
X128201404Y-94181647D01*
X128125723Y-94132627D01*
X124392695Y-90606989D01*
X124380661Y-90594815D01*
X124211709Y-90411703D01*
X124190291Y-90385023D01*
X124052949Y-90187534D01*
X124035390Y-90158168D01*
X123926419Y-89943711D01*
X123913051Y-89912213D01*
X123893016Y-89854212D01*
X123834510Y-89684841D01*
X123825591Y-89651824D01*
X123788686Y-89465036D01*
X123788811Y-89367885D01*
X123826106Y-89278173D01*
X123894893Y-89209563D01*
X123984700Y-89172498D01*
X123993952Y-89170851D01*
X124126493Y-89149860D01*
X124373572Y-89069579D01*
X124605051Y-88951634D01*
X124815229Y-88798931D01*
X124998931Y-88615229D01*
X125151634Y-88405051D01*
X125269579Y-88173572D01*
X125349860Y-87926493D01*
X125390500Y-87669897D01*
X125390500Y-87410103D01*
X125349860Y-87153507D01*
X125269579Y-86906428D01*
X125151634Y-86674949D01*
X124998931Y-86464771D01*
X124980226Y-86446066D01*
X124926253Y-86365288D01*
X124907299Y-86270000D01*
X124926253Y-86174712D01*
X124980226Y-86093933D01*
X124998931Y-86075229D01*
X125151634Y-85865051D01*
X125269579Y-85633572D01*
X125349860Y-85386493D01*
X125390500Y-85129897D01*
X125390500Y-84870103D01*
X125349860Y-84613507D01*
X125269579Y-84366428D01*
X125151634Y-84134949D01*
X124998931Y-83924771D01*
X124980226Y-83906066D01*
X124926253Y-83825288D01*
X124907299Y-83730000D01*
X124926253Y-83634712D01*
X124980226Y-83553933D01*
X124998931Y-83535229D01*
X125151634Y-83325051D01*
X125269579Y-83093572D01*
X125349860Y-82846493D01*
X125390500Y-82589897D01*
X125390500Y-82330103D01*
X125349860Y-82073507D01*
X125269579Y-81826428D01*
X125151634Y-81594949D01*
X124998931Y-81384771D01*
X124980226Y-81366066D01*
X124926253Y-81285288D01*
X124907299Y-81190000D01*
X124926253Y-81094712D01*
X124980226Y-81013933D01*
X124998931Y-80995229D01*
X125151634Y-80785051D01*
X125269579Y-80553572D01*
X125349860Y-80306493D01*
X125390500Y-80049897D01*
X125390500Y-79790103D01*
X125349860Y-79533507D01*
X125269579Y-79286428D01*
X125151634Y-79054949D01*
X124998931Y-78844771D01*
X124815229Y-78661069D01*
X124770534Y-78628596D01*
X124605050Y-78508365D01*
X124373577Y-78390423D01*
X124373567Y-78390419D01*
X124126491Y-78310139D01*
X124094227Y-78305029D01*
X124003077Y-78271401D01*
X123931735Y-78205451D01*
X123891061Y-78117220D01*
X123884199Y-78056306D01*
X123899487Y-76695678D01*
X123919509Y-76600615D01*
X123974390Y-76520445D01*
X124055772Y-76467380D01*
X124109515Y-76452548D01*
X124126493Y-76449860D01*
X124373572Y-76369579D01*
X124605051Y-76251634D01*
X124815229Y-76098931D01*
X124998931Y-75915229D01*
X125151634Y-75705051D01*
X125269579Y-75473572D01*
X125349860Y-75226493D01*
X125390500Y-74969897D01*
X125390500Y-74710103D01*
X125365313Y-74551074D01*
X125349861Y-74453512D01*
X125349860Y-74453510D01*
X125349860Y-74453507D01*
X125269579Y-74206428D01*
X125151634Y-73974949D01*
X125151630Y-73974944D01*
X125147859Y-73967542D01*
X125121487Y-73874034D01*
X125132906Y-73777553D01*
X125180377Y-73692785D01*
X125193639Y-73678438D01*
X125219816Y-73652262D01*
X125315789Y-73499522D01*
X125375368Y-73329255D01*
X125378091Y-73305079D01*
X125390499Y-73194968D01*
X125390500Y-73194953D01*
X125390500Y-72170107D01*
X139869500Y-72170107D01*
X139869500Y-72429892D01*
X139869501Y-72429908D01*
X139910138Y-72686487D01*
X139910140Y-72686493D01*
X139990419Y-72933567D01*
X139990423Y-72933577D01*
X140108365Y-73165050D01*
X140227667Y-73329255D01*
X140261069Y-73375229D01*
X140279773Y-73393933D01*
X140333747Y-73474712D01*
X140352701Y-73570000D01*
X140333747Y-73665288D01*
X140279773Y-73746066D01*
X140261069Y-73764771D01*
X140261066Y-73764774D01*
X140108365Y-73974949D01*
X139990423Y-74206422D01*
X139990419Y-74206432D01*
X139910140Y-74453506D01*
X139910138Y-74453512D01*
X139869501Y-74710091D01*
X139869500Y-74710107D01*
X139869500Y-74969892D01*
X139869501Y-74969908D01*
X139910138Y-75226487D01*
X139910140Y-75226493D01*
X139990419Y-75473567D01*
X139990423Y-75473577D01*
X140108365Y-75705050D01*
X140191789Y-75819873D01*
X140261069Y-75915229D01*
X140444771Y-76098931D01*
X140654949Y-76251634D01*
X140886428Y-76369579D01*
X141133507Y-76449860D01*
X141133510Y-76449860D01*
X141133512Y-76449861D01*
X141244126Y-76467380D01*
X141390103Y-76490500D01*
X141390107Y-76490500D01*
X141649893Y-76490500D01*
X141649897Y-76490500D01*
X141906493Y-76449860D01*
X142153572Y-76369579D01*
X142385051Y-76251634D01*
X142595229Y-76098931D01*
X142778931Y-75915229D01*
X142931634Y-75705051D01*
X143019045Y-75533496D01*
X143034366Y-75514061D01*
X143045642Y-75492033D01*
X143064146Y-75476287D01*
X143079191Y-75457203D01*
X143100786Y-75445109D01*
X143119634Y-75429071D01*
X143142757Y-75421604D01*
X143163959Y-75409731D01*
X143188536Y-75406822D01*
X143212089Y-75399217D01*
X143236311Y-75401167D01*
X143260440Y-75398312D01*
X143284257Y-75405029D01*
X143308930Y-75407016D01*
X143325211Y-75416578D01*
X143353948Y-75424683D01*
X143395415Y-75451282D01*
X143406756Y-75460256D01*
X143445964Y-75499464D01*
X143504090Y-75538302D01*
X143593453Y-75598013D01*
X143639154Y-75616942D01*
X143675389Y-75631952D01*
X143675392Y-75631952D01*
X143675393Y-75631953D01*
X143675398Y-75631955D01*
X143757329Y-75665893D01*
X143757330Y-75665893D01*
X143757334Y-75665895D01*
X143931308Y-75700500D01*
X143931309Y-75700500D01*
X147086518Y-75700500D01*
X147181806Y-75719454D01*
X147216625Y-75737195D01*
X147223210Y-75741230D01*
X147223212Y-75741232D01*
X147377555Y-75819873D01*
X147542299Y-75873402D01*
X147713389Y-75900500D01*
X147713393Y-75900500D01*
X147886607Y-75900500D01*
X147886611Y-75900500D01*
X148057701Y-75873402D01*
X148222445Y-75819873D01*
X148376788Y-75741232D01*
X148516928Y-75639414D01*
X148639414Y-75516928D01*
X148741232Y-75376788D01*
X148819873Y-75222445D01*
X148873402Y-75057701D01*
X148900500Y-74886611D01*
X148900500Y-74713389D01*
X148873402Y-74542299D01*
X148819873Y-74377555D01*
X148741232Y-74223212D01*
X148741230Y-74223209D01*
X148741229Y-74223207D01*
X148639418Y-74083077D01*
X148639416Y-74083075D01*
X148639414Y-74083072D01*
X148516928Y-73960586D01*
X148516924Y-73960583D01*
X148516922Y-73960581D01*
X148376792Y-73858770D01*
X148222443Y-73780126D01*
X148222437Y-73780124D01*
X148117629Y-73746070D01*
X148057701Y-73726598D01*
X148057699Y-73726597D01*
X148057697Y-73726597D01*
X147886621Y-73699501D01*
X147886614Y-73699500D01*
X147886611Y-73699500D01*
X147713389Y-73699500D01*
X147713386Y-73699500D01*
X147713378Y-73699501D01*
X147542302Y-73726597D01*
X147377562Y-73780124D01*
X147377561Y-73780124D01*
X147223214Y-73858766D01*
X147216625Y-73862805D01*
X147125475Y-73896434D01*
X147086518Y-73899500D01*
X144496140Y-73899500D01*
X144400852Y-73880546D01*
X144320070Y-73826570D01*
X143226425Y-72732925D01*
X143172449Y-72652143D01*
X143156761Y-72573272D01*
X154799500Y-72573272D01*
X154799500Y-72861728D01*
X154837151Y-73147717D01*
X154911809Y-73426345D01*
X154911811Y-73426351D01*
X154911811Y-73426352D01*
X155022193Y-73692839D01*
X155022195Y-73692843D01*
X155022196Y-73692845D01*
X155166425Y-73942656D01*
X155342026Y-74171504D01*
X155545996Y-74375474D01*
X155774844Y-74551075D01*
X156024655Y-74695304D01*
X156024660Y-74695306D01*
X156291147Y-74805688D01*
X156291149Y-74805688D01*
X156291155Y-74805691D01*
X156569783Y-74880349D01*
X156855772Y-74918000D01*
X157144228Y-74918000D01*
X157430217Y-74880349D01*
X157708845Y-74805691D01*
X157975345Y-74695304D01*
X158225156Y-74551075D01*
X158454004Y-74375474D01*
X158657974Y-74171504D01*
X158833575Y-73942656D01*
X158977804Y-73692845D01*
X159088191Y-73426345D01*
X159162849Y-73147717D01*
X159200500Y-72861728D01*
X159200500Y-72573272D01*
X159162849Y-72287283D01*
X159088191Y-72008655D01*
X158977804Y-71742155D01*
X158833575Y-71492344D01*
X158657974Y-71263496D01*
X158454004Y-71059526D01*
X158225156Y-70883925D01*
X157975345Y-70739696D01*
X157975343Y-70739695D01*
X157975339Y-70739693D01*
X157708852Y-70629311D01*
X157708845Y-70629309D01*
X157430217Y-70554651D01*
X157430210Y-70554650D01*
X157144228Y-70517000D01*
X156855772Y-70517000D01*
X156569789Y-70554650D01*
X156569787Y-70554650D01*
X156569783Y-70554651D01*
X156291155Y-70629309D01*
X156291148Y-70629311D01*
X156291147Y-70629311D01*
X156024660Y-70739693D01*
X156024656Y-70739695D01*
X155774843Y-70883925D01*
X155545996Y-71059526D01*
X155545992Y-71059529D01*
X155342029Y-71263492D01*
X155342026Y-71263496D01*
X155166425Y-71492343D01*
X155022195Y-71742156D01*
X155022193Y-71742160D01*
X154911811Y-72008647D01*
X154911811Y-72008648D01*
X154911809Y-72008654D01*
X154911809Y-72008655D01*
X154837151Y-72287283D01*
X154837150Y-72287287D01*
X154837150Y-72287289D01*
X154818375Y-72429903D01*
X154799500Y-72573272D01*
X143156761Y-72573272D01*
X143153495Y-72556855D01*
X143156560Y-72517908D01*
X143170500Y-72429897D01*
X143170500Y-72170103D01*
X143129860Y-71913507D01*
X143049579Y-71666428D01*
X142931634Y-71434949D01*
X142778931Y-71224771D01*
X142595229Y-71041069D01*
X142466770Y-70947738D01*
X142385050Y-70888365D01*
X142153577Y-70770423D01*
X142153567Y-70770419D01*
X141906493Y-70690140D01*
X141906487Y-70690138D01*
X141649908Y-70649501D01*
X141649899Y-70649500D01*
X141649897Y-70649500D01*
X141390103Y-70649500D01*
X141390100Y-70649500D01*
X141390091Y-70649501D01*
X141133512Y-70690138D01*
X141133506Y-70690140D01*
X140886432Y-70770419D01*
X140886422Y-70770423D01*
X140654949Y-70888365D01*
X140444774Y-71041066D01*
X140261066Y-71224774D01*
X140108365Y-71434949D01*
X139990423Y-71666422D01*
X139990419Y-71666432D01*
X139910140Y-71913506D01*
X139910138Y-71913512D01*
X139869501Y-72170091D01*
X139869500Y-72170107D01*
X125390500Y-72170107D01*
X125390500Y-71405046D01*
X125390499Y-71405031D01*
X125375369Y-71270754D01*
X125375368Y-71270745D01*
X125315789Y-71100478D01*
X125315786Y-71100473D01*
X125315785Y-71100470D01*
X125219819Y-70947742D01*
X125219817Y-70947740D01*
X125219816Y-70947738D01*
X125092262Y-70820184D01*
X125092259Y-70820182D01*
X125092257Y-70820180D01*
X124939529Y-70724214D01*
X124939524Y-70724212D01*
X124939522Y-70724211D01*
X124769255Y-70664632D01*
X124769251Y-70664631D01*
X124769245Y-70664630D01*
X124634968Y-70649500D01*
X124634954Y-70649500D01*
X124219235Y-70649500D01*
X124123947Y-70630546D01*
X124043165Y-70576570D01*
X123989189Y-70495788D01*
X123970235Y-70400500D01*
X123970251Y-70397703D01*
X123974728Y-69999214D01*
X123977681Y-69736345D01*
X123978503Y-69718757D01*
X123999572Y-69462779D01*
X124004945Y-69427935D01*
X124060007Y-69186140D01*
X124070248Y-69152415D01*
X124158922Y-68920831D01*
X124173827Y-68888888D01*
X124294330Y-68672165D01*
X124313607Y-68642636D01*
X124463521Y-68445122D01*
X124486781Y-68418609D01*
X124663105Y-68244255D01*
X124689864Y-68221306D01*
X124889065Y-68073610D01*
X124918792Y-68054677D01*
X125136861Y-67936613D01*
X125168975Y-67922065D01*
X125401534Y-67836001D01*
X125435388Y-67826136D01*
X125677775Y-67773796D01*
X125712666Y-67768815D01*
X125951130Y-67751883D01*
X125968853Y-67750625D01*
X125986488Y-67750000D01*
X163491102Y-67750000D01*
X163508864Y-67750633D01*
G37*
%TD.AperFunction*%
%TD*%
%TA.AperFunction,Conductor*%
%TO.N,/Radio-Audio/Board Antenna*%
G36*
X120036774Y-82062725D02*
G01*
X120076052Y-82091262D01*
X121227054Y-83472465D01*
X121249782Y-83529271D01*
X121250000Y-83535842D01*
X121250000Y-120901000D01*
X121231093Y-120959191D01*
X121181593Y-120995155D01*
X121151000Y-121000000D01*
X118849000Y-121000000D01*
X118790809Y-120981093D01*
X118754845Y-120931593D01*
X118750000Y-120901000D01*
X118750000Y-83535842D01*
X118768907Y-83477651D01*
X118772936Y-83472476D01*
X119923947Y-82091263D01*
X119975724Y-82058665D01*
X120036774Y-82062725D01*
G37*
%TD.AperFunction*%
%TD*%
M02*
